<mxfile host="Electron" modified="2023-07-08T13:48:11.736Z" agent="Mozilla/5.0 (Macintosh; Intel Mac OS X 10_15_7) AppleWebKit/537.36 (KHTML, like Gecko) draw.io/21.2.8 Chrome/112.0.5615.165 Electron/24.2.0 Safari/537.36" etag="j02s9tOsMvwCkF86m6kI" version="21.2.8" type="device">
  <diagram name="fast-n-foodious-hexagon" id="T9hvICRqtUGCdK5VCPla">
    <mxGraphModel dx="2140" dy="971" grid="0" gridSize="10" guides="1" tooltips="1" connect="1" arrows="1" fold="1" page="1" pageScale="1" pageWidth="850" pageHeight="1100" math="0" shadow="0">
      <root>
        <mxCell id="0" />
        <mxCell id="1" parent="0" />
        <mxCell id="xNWUwTir-geYUf0pCN78-84" value="" style="rounded=0;whiteSpace=wrap;html=1;fillColor=#2D2F36;strokeColor=none;labelBackgroundColor=none;" parent="1" vertex="1">
          <mxGeometry x="323.5" y="618" width="1039.5" height="212" as="geometry" />
        </mxCell>
        <mxCell id="xNWUwTir-geYUf0pCN78-85" value="HEXAGON" style="text;html=1;align=center;verticalAlign=middle;resizable=0;points=[];autosize=1;strokeColor=none;fillColor=none;fontStyle=1;fontSize=180;fontColor=#42454f;" parent="1" vertex="1">
          <mxGeometry x="380" y="624" width="928" height="228" as="geometry" />
        </mxCell>
        <mxCell id="xNWUwTir-geYUf0pCN78-2" value="" style="rounded=0;whiteSpace=wrap;html=1;fillColor=#2D2F36;strokeColor=#DDDFE0;" parent="1" vertex="1">
          <mxGeometry x="843" y="51" width="520" height="568" as="geometry" />
        </mxCell>
        <mxCell id="xNWUwTir-geYUf0pCN78-3" value="" style="rounded=0;whiteSpace=wrap;html=1;fillColor=#42454F;strokeColor=#DDDFE0;" parent="1" vertex="1">
          <mxGeometry x="323" y="51" width="520" height="568" as="geometry" />
        </mxCell>
        <mxCell id="xNWUwTir-geYUf0pCN78-1" value="" style="shape=hexagon;perimeter=hexagonPerimeter2;whiteSpace=wrap;html=1;fixedSize=1;fillColor=#2D2F36;direction=south;size=126.17391304347825;strokeColor=#FF66B3;" parent="1" vertex="1">
          <mxGeometry x="543.5" y="199" width="600" height="540" as="geometry" />
        </mxCell>
        <mxCell id="xNWUwTir-geYUf0pCN78-4" value="DRIVING" style="text;html=1;align=left;verticalAlign=middle;resizable=0;points=[];autosize=1;strokeColor=none;fillColor=none;fontStyle=3;fontSize=25;fontColor=#2D2F36;" parent="1" vertex="1">
          <mxGeometry x="518" y="71" width="130" height="40" as="geometry" />
        </mxCell>
        <mxCell id="xNWUwTir-geYUf0pCN78-5" value="DRIVEN" style="text;html=1;align=right;verticalAlign=middle;resizable=0;points=[];autosize=1;strokeColor=none;fillColor=none;fontStyle=3;fontSize=25;fontColor=#42454F;" parent="1" vertex="1">
          <mxGeometry x="1043" y="79" width="120" height="40" as="geometry" />
        </mxCell>
        <mxCell id="xNWUwTir-geYUf0pCN78-6" value="DOMAIN" style="text;html=1;align=center;verticalAlign=middle;resizable=0;points=[];autosize=1;strokeColor=none;fillColor=none;fontStyle=1;fontSize=55;fontColor=#4d4f56;" parent="1" vertex="1">
          <mxGeometry x="718" y="320" width="250" height="80" as="geometry" />
        </mxCell>
        <mxCell id="xNWUwTir-geYUf0pCN78-12" value="APPLICATION" style="text;html=1;align=center;verticalAlign=middle;resizable=0;points=[];autosize=1;strokeColor=none;fillColor=none;fontStyle=1;fontSize=55;fontColor=#2d2f36;" parent="1" vertex="1">
          <mxGeometry x="388" y="117" width="390" height="80" as="geometry" />
        </mxCell>
        <mxCell id="xNWUwTir-geYUf0pCN78-13" value="INFRASTRUCTURE" style="text;html=1;align=center;verticalAlign=middle;resizable=0;points=[];autosize=1;strokeColor=none;fillColor=none;fontStyle=1;fontSize=55;fontColor=#42454f;" parent="1" vertex="1">
          <mxGeometry x="838" y="117" width="530" height="80" as="geometry" />
        </mxCell>
        <mxCell id="xNWUwTir-geYUf0pCN78-16" value="" style="rounded=0;whiteSpace=wrap;html=1;fillColor=#ff66b3;strokeColor=none;dashed=1;" parent="1" vertex="1">
          <mxGeometry x="1043" y="459" width="100" height="160" as="geometry" />
        </mxCell>
        <mxCell id="xNWUwTir-geYUf0pCN78-21" value="" style="rounded=0;whiteSpace=wrap;html=1;fillColor=#ff66b3;strokeColor=none;dashed=1;flipH=0;flipV=0;direction=east;" parent="1" vertex="1">
          <mxGeometry x="543" y="459" width="100" height="160" as="geometry" />
        </mxCell>
        <mxCell id="xNWUwTir-geYUf0pCN78-22" value="" style="rounded=0;whiteSpace=wrap;html=1;strokeColor=none;fillColor=#42454F;flipH=0;flipV=0;direction=east;" parent="1" vertex="1">
          <mxGeometry x="533" y="530" width="43" height="29" as="geometry" />
        </mxCell>
        <mxCell id="xNWUwTir-geYUf0pCN78-23" value="" style="rounded=0;whiteSpace=wrap;html=1;strokeColor=none;fillColor=#42454F;flipH=0;flipV=0;direction=east;" parent="1" vertex="1">
          <mxGeometry x="533" y="578" width="43" height="30" as="geometry" />
        </mxCell>
        <mxCell id="xNWUwTir-geYUf0pCN78-17" value="" style="rounded=0;whiteSpace=wrap;html=1;strokeColor=none;fillColor=#2D2F36;" parent="1" vertex="1">
          <mxGeometry x="1110" y="530" width="43" height="30" as="geometry" />
        </mxCell>
        <mxCell id="xNWUwTir-geYUf0pCN78-19" value="" style="rounded=0;whiteSpace=wrap;html=1;strokeColor=none;fillColor=#2D2F36;" parent="1" vertex="1">
          <mxGeometry x="1110" y="578" width="43" height="30" as="geometry" />
        </mxCell>
        <mxCell id="xNWUwTir-geYUf0pCN78-31" style="edgeStyle=orthogonalEdgeStyle;rounded=0;orthogonalLoop=1;jettySize=auto;html=1;endArrow=none;endFill=0;startArrow=classic;startFill=1;elbow=vertical;curved=1;strokeWidth=2;dashed=1;strokeColor=#FF66B3;" parent="1" target="xNWUwTir-geYUf0pCN78-28" edge="1">
          <mxGeometry relative="1" as="geometry">
            <mxPoint x="543" y="479" as="sourcePoint" />
          </mxGeometry>
        </mxCell>
        <mxCell id="xNWUwTir-geYUf0pCN78-32" value="&amp;lt;uses&amp;gt;" style="edgeLabel;html=1;align=center;verticalAlign=middle;resizable=0;points=[];labelBackgroundColor=#42454F;fontColor=#FF66B3;fontSize=15;fontStyle=2" parent="xNWUwTir-geYUf0pCN78-31" vertex="1" connectable="0">
          <mxGeometry x="-0.2518" y="9" relative="1" as="geometry">
            <mxPoint as="offset" />
          </mxGeometry>
        </mxCell>
        <mxCell id="xNWUwTir-geYUf0pCN78-26" value="PORT" style="text;html=1;align=center;verticalAlign=middle;resizable=0;points=[];autosize=1;strokeColor=none;fillColor=none;fontStyle=1;fontSize=25;fontColor=#2d2f36;" parent="1" vertex="1">
          <mxGeometry x="548" y="459" width="90" height="40" as="geometry" />
        </mxCell>
        <mxCell id="xNWUwTir-geYUf0pCN78-33" style="edgeStyle=orthogonalEdgeStyle;rounded=0;orthogonalLoop=1;jettySize=auto;html=1;endArrow=none;endFill=0;startArrow=classic;startFill=1;dashed=1;curved=1;strokeWidth=2;strokeColor=#FF66B3;" parent="1" target="xNWUwTir-geYUf0pCN78-29" edge="1">
          <mxGeometry relative="1" as="geometry">
            <mxPoint x="1143" y="479" as="sourcePoint" />
          </mxGeometry>
        </mxCell>
        <mxCell id="xNWUwTir-geYUf0pCN78-34" value="&amp;lt;implements&amp;gt;" style="edgeLabel;html=1;align=center;verticalAlign=middle;resizable=0;points=[];fontStyle=2;fontSize=15;labelBackgroundColor=#2d2f36;fontColor=#FF66B3;" parent="xNWUwTir-geYUf0pCN78-33" vertex="1" connectable="0">
          <mxGeometry x="-0.167" y="-15" relative="1" as="geometry">
            <mxPoint y="-5" as="offset" />
          </mxGeometry>
        </mxCell>
        <mxCell id="xNWUwTir-geYUf0pCN78-27" value="PORT" style="text;html=1;align=center;verticalAlign=middle;resizable=0;points=[];autosize=1;strokeColor=none;fillColor=none;fontStyle=1;fontSize=25;fontColor=#2d2f36;" parent="1" vertex="1">
          <mxGeometry x="1048" y="459" width="90" height="40" as="geometry" />
        </mxCell>
        <mxCell id="xNWUwTir-geYUf0pCN78-29" value="ADAPTER" style="text;html=1;align=right;verticalAlign=middle;resizable=0;points=[];autosize=1;strokeColor=none;fillColor=none;fontStyle=1;fontSize=25;fontColor=#FF66B3;" parent="1" vertex="1">
          <mxGeometry x="1178" y="568" width="140" height="40" as="geometry" />
        </mxCell>
        <mxCell id="xNWUwTir-geYUf0pCN78-28" value="ADAPTER" style="text;html=1;align=left;verticalAlign=middle;resizable=0;points=[];autosize=1;strokeColor=none;fillColor=none;fontStyle=1;fontSize=25;fontColor=#FF66B3;" parent="1" vertex="1">
          <mxGeometry x="363.25" y="567" width="139" height="42" as="geometry" />
        </mxCell>
        <mxCell id="xNWUwTir-geYUf0pCN78-35" value="IRepository&amp;lt;T&amp;gt;" style="text;html=1;align=right;verticalAlign=middle;whiteSpace=wrap;rounded=0;fontColor=#F7FAFB;fontStyle=2;fontSize=20;" parent="1" vertex="1">
          <mxGeometry x="943" y="530" width="100" height="30" as="geometry" />
        </mxCell>
        <mxCell id="xNWUwTir-geYUf0pCN78-36" value="IService&amp;lt;T&amp;gt;" style="text;html=1;align=left;verticalAlign=middle;whiteSpace=wrap;rounded=0;fontColor=#F7FAFB;fontStyle=2;fontSize=20;" parent="1" vertex="1">
          <mxGeometry x="643" y="529.5" width="100" height="30" as="geometry" />
        </mxCell>
        <mxCell id="xNWUwTir-geYUf0pCN78-42" value="" style="shape=image;verticalLabelPosition=bottom;labelBackgroundColor=default;verticalAlign=top;aspect=fixed;imageAspect=0;image=https://styles.redditmedia.com/t5_2qm6k/styles/communityIcon_dhjr6guc03x51.png;" parent="1" vertex="1">
          <mxGeometry x="1212.5" y="169" width="80" height="80" as="geometry" />
        </mxCell>
        <mxCell id="xNWUwTir-geYUf0pCN78-47" value="" style="shape=image;verticalLabelPosition=bottom;labelBackgroundColor=default;verticalAlign=top;aspect=fixed;imageAspect=0;image=data:image/png,iVBORw0KGgoAAAANSUhEUgAAAgAAAAIACAYAAAD0eNT6AAAAAXNSR0IArs4c6QAAAIRlWElmTU0AKgAAAAgABQESAAMAAAABAAEAAAEaAAUAAAABAAAASgEbAAUAAAABAAAAUgEoAAMAAAABAAIAAIdpAAQAAAABAAAAWgAAAAAAAABIAAAAAQAAAEgAAAABAAOgAQADAAAAAQABAACgAgAEAAAAAQAAAgCgAwAEAAAAAQAAAgAAAAAA+MLYhgAAAAlwSFlzAAALEwAACxMBAJqcGAAAAVlpVFh0WE1MOmNvbS5hZG9iZS54bXAAAAAAADx4OnhtcG1ldGEgeG1sbnM6eD0iYWRvYmU6bnM6bWV0YS8iIHg6eG1wdGs9IlhNUCBDb3JlIDYuMC4wIj4KICAgPHJkZjpSREYgeG1sbnM6cmRmPSJodHRwOi8vd3d3LnczLm9yZy8xOTk5LzAyLzIyLXJkZi1zeW50YXgtbnMjIj4KICAgICAgPHJkZjpEZXNjcmlwdGlvbiByZGY6YWJvdXQ9IiIKICAgICAgICAgICAgeG1sbnM6dGlmZj0iaHR0cDovL25zLmFkb2JlLmNvbS90aWZmLzEuMC8iPgogICAgICAgICA8dGlmZjpPcmllbnRhdGlvbj4xPC90aWZmOk9yaWVudGF0aW9uPgogICAgICA8L3JkZjpEZXNjcmlwdGlvbj4KICAgPC9yZGY6UkRGPgo8L3g6eG1wbWV0YT4KGV7hBwAAQABJREFUeAHtvQ24JVdZ51tV55xOOiGE7nQCHUFQR3AYAbmMw4zDBe51UGGM0N30MF6vGCV0RxRRdETSHe4Z0x1FQBQU0ydhQH3Qy026w8eAV5zha8RRUQeZERyECwikhSTdJKHpdJ9zdt1V+/SqvWrVu76q1qq9aq//eZ7zVK2Pvdb7/t/f+ti1a9fO9+9f3bZjx+5ybe3getbx78CBYyunT5/M+cvRHlfC7gj9wJ8dKVu1wAt4AS9qBTA+7MdHgcVaDRJVArjs4YJ+WQZewAs1DlR54AW8qNig8vvyUr9rpxo35fXtXG4f7QF+mQldGryAFx0fchl4AS8yE7p0Crx03gCkII4IB/zF5CHyYDoHL+DFxIhYDl7Ai8iD6dwXL502AL46506iPcDPWbA5ghfwYsMJrwNewAtnweaYEi/OG4CUxKlggb+YPGwmDV4HvIAXzoLNEbyAFxtOeB3fvDhtAHx3jvYAPwfb5ghewIsNJ7wOeAEvnAWbY4q8WG8AUhQHX23EV0NtJo6qDsYHFhtbVsBLluHbZy60hJtfrDYAmNwwubngCl7AC3hRK4DxgfGhpqNdEpIX4wYgZOeVq9gJtgOuy0E8MHno+JDLwAt4kZnQpcFLWrxoNwCAIS0YsBnTTY3tMowPjI82Feoc8AJe1HS0S4bgRbkBGKJzPH64HXRVDuKByUPFBpUPXsALxYUqD7ykyQu5AQAMacKgmhxM+eAFvJgYEcvBC3gReTCdg5dwvLQ2ABA7nNgm0KlyxAPxoLhQ5YEX8KJig8oHL2nz0tgAAIa0YaAmCF0eeAEvOj7kMvACXmQmdGnwEp6XegMAscOLrYNdLkM8EA+ZCV0avIAXHR9yGXgBLxUT0w0AYAAM8gShS4MX8KLjQy4DL+BFZkKXBi/D8ZJD7OHE1kHPyxAPxIOzYHMEL+DFhhNeB7yAF85CdSzwuFs87lYEQneOyQOTh44PuQy8gBeZCV0avAzPS8EDgofAcCXsjoB1eFh1kUE8EA8dH3IZeAEvMhO69KLyMt0AYPHXhb5dtqgwtD3dyoG/mCxVbFD54AW8UFyo8sDL/HgpsPirsKTzAev8YKUignggHhQXqjzwAl5UbFD5i85L/TVAynlT3qKLI/sPfzF5yEzo0uAFvOj4kMvAC3iRmdClffDSeQPgo3PRObQH+EUeTOfgBbyYGBHLwQt4EXkwnafCS6cNQCricEjgLyYPzoLNEbyAFxtOeB3wAl44CzZHn7w4bwB8dl45i/YAvw30vA54AS+cBZsjeAEvNpzwOqnx4rQBSE0c+IvJg08MNkfwAl5sOOF1wAt44SzYHEPwYr0BCNE5HkKEhxDZgF/VAX+YLG1ZAS9Zhm93udCS7vxitQHA5IvJ12U4gRfwAl7UCmB8YHyo6WiXhOTFuAEI2XnlKnaq7YDrchAPTB46PuQy8AJeZCZ0afCSFi/aDQBgSAsGbMZ0U2O7DOMD46NNhToHvIAXNR3tkiF4UW4Ahuh8bQ2fgbfDTucgHpg8aDLoXPACXmgy6FzwkiYv5AYAMKQJAz01mHPBC3gxUzKrAV7Ay4wG8xl4CcdLawMAscOJbUa9XQPxQDzaVKhzwAt4UdPRLgEvafPS2AAAhrRhaE8P+hzwAl70hDRLwQt4aRKhT4GX8LzUGwCIHV5sPe7NUsQD8WgSoU+BF/CiJ6RZCl7AS0XEdAMAGABDc3rQp8ALeNET0iwFL+ClSYQ+BV6G4yWH2MOJrcd+qxTxQDxsOOF1wAt44SzYHMELeBE5KfA4XnwVUQRCd47JA5OHjg+5DLyAF5kJXRq8DM9LwQOCh8BwJeyOgHV4WHWRQTwQDx0fchl4AS8yE7r0ovIy3QBg8deFvl22qDC0Pd3Kgb+YLFVsUPngBbxQXKjywMv8eCmw+KuwpPMB6/xgpSKCeCAeFBeqPPACXlRsUPmLzkv9NUDKeVPeoosj+w9/MXnITOjS4AW86PiQy8ALeJGZ0KV98NJ5A+Cjc9E5tAf4RR5M5+AFvJgYEcvBC3gReTCdp8JLpw1AKuJwSOAvJg/Ogs0RvIAXG054HfACXjgLNkefvDhvAHx2XjmL9gC/DfS8DngBL5wFmyN4AS82nPA6qfHitAFITRz4i8mDTww2R/ACXmw44XXAC3jhLNgcQ/BivQEI0TkeQoSHENmAX9UBf5gsbVkBL1mGb3e50JLu/GK1AcDki8nXZTiBF/ACXtQKYHxgfKjpaJeE5MW4AQjZeeUqdqrtgOtyEA9MHjo+5DLwAl5kJnRp8JIWL9oNAGBICwZsxnRTY7sM4wPjo02FOge8gBc1He2SIXhRbgCG6HxtDZ+Bt8NO5yAemDxoMuhc8AJeaDLoXPCSJi/kBgAwpAkDPTWYc8ELeDFTMqsBXsDLjAbzGXgJx0trAwCxw4ltRr1dA/FAPNpUqHPAC3hR09EuAS9p89LYAACGtGFoTw/6HPACXvSENEvBC3hpEqFPgZfwvNQbAIgdXmw97s1SxAPxaBKhT4EX8KInpFkKXsBLRcR0AwAYAENzetCnwAt40RPSLAUv4KVJhD4FXobjJYfYw4mtx36rFPFAPGw44XXAC3jhLNgcwQt4ETkp8DhefBVRBEJ3jskDk4eOD7kMvIAXmQldGrwMz0vBA4KHwHAl7I6AdXhYdZFBPBAPHR9yGXgBLzITuvSi8jLdAGDx14W+XbaoMLQ93cqBv5gsVWxQ+eAFvFBcqPLAy/x4KbD4q7Ck8wHr/GClIoJ4IB4UF6o88AJeVGxQ+YvOS/01QMp5U96iiyP7D38xechM6NLgBbzo+JDLwAt4kZnQpX3w0nkD4KNz0Tm0B/hFHkzn4AW8mBgRy8ELeBF5MJ2nwkunDUAq4nBI4C8mD86CzRG8gBcbTngd8AJeOAs2R5+8OG8AfHZeOYv2AL8N9LwOeAEvnAWbI3gBLzac8Dqp8eK0AUhNHPiLyYNPDDZH8AJebDjhdcALeOEs2BxD8GK9AQjROR5ChIcQ2YBf1QF/mCxtWQEvWYZvd7nQku78YrUBwOSLyddlOIEX8AJe1ApgfGB8qOlol4TkxbgBCNl55Sp2qu2A63IQD0weOj7kMvACXmQmdGnwkhYv2g0AYEgLBmzGdFNjuwzjA+OjTYU6B7yAFzUd7ZIheFFuAIbofG0Nn4G3w07nIB6YPGgy6FzwAl5oMuhc8JImL+QGADCkCQM9NZhzwQt4MVMyqwFewMuMBvMZeAnHS2sDALHDiW1GvV0D8UA82lSoc8ALeFHT0S4BL2nz0tgAAIa0YWhPD/oc8AJe9IQ0S8ELeGkSoU+Bl/C81BsAiB1ebD3uzVLEA/FoEqFPgRfwoiekWQpewEtFxHQDABgAQ3N60KfAC3jRE9IsBS/gpUmEPgVehuMlh9jDia3HfqsU8UA8bDjhdcALeOEs2BzBC3gROSnwOF58FVEEQneOyQOTh44PuQy8gBeZCV0avAzPS8EDgofAcCXsjoB1eFh1kUE8EA8dH3IZeAEvMhO69KLyMt0AYPHXhb5dtqgwtD3dyoG/mCxVbFD54AW8UFyo8sDL/HgpsPirsKTzAev8YKUignggHhQXqjzwAl5UbFD5i85L/TVAynlT3qKLI/sPfzF5yEzo0uAFvOj4kMvAC3iRmdClffDSeQPgo3PRObQH+EUeTOfgBbyYGBHLwQt4EXkwnafCS6cNQCricEjgLyYPzoLNEbyAFxtOeB3wAl44CzZHn7w4bwB8dl45i/YAvw30vA54AS+cBZsjeAEvNpzwOqnx4rQBSE0c+IvJg08MNkfwAl5sOOF1wAt44SzYHEPwYr0BCNE5HkKEhxDZgF/VAX+YLG1ZAS9Zhm93udCS7vxitQHA5IvJ12U4gRfwAl7UCmB8YHyo6WiXhOTFuAEI2XnlKnaq7YDrchAPTB46PuQy8AJeZCZ0afCSFi/aDQBgSAsGbMZ0U2O7DOMD46NNhToHvIAXNR3tkiF4UW4Ahuh8bQ2fgbfDTucgHpg8aDLoXPACXmgy6FzwkiYv5AYAMKQJAz01mHPBC3gxUzKrAV7Ay4wG8xl4CcdLawMAscOJbUa9XQPxQDzaVKhzwAt4UdPRLgEvafPS2AAAhrRhaE8P+hzwAl70hDRLwQt4aRKhT4GX8LzUGwCIHV5sPe7NUsQD8WgSoU+BF/CiJ6RZCl7AS0XEdAMAGABDc3rQp8ALeNET0iwFL+ClSYQ+BV6G4yWH2MOJrcd+qxTxQDxsOOF1wAt44SzYHMELeBE5KfA4XnwVUQRCd47JA5OHjg+5DLyAF5kJXRq8DM9LwQOCh8BwJeyOgHV4WHWRQTwQDx0fchl4AS8yE7r0ovIy3QBg8deFvl22qDC0Pd3Kgb+YLFVsUPngBbxQXKjywMv8eCmw+KuwpPMB6/xgpSKCeCAeFBeqPPACXlRsUPmLzkv9NUDKeVPeoosj+w9/MXnITOjS4AW86PiQy8ALeJGZ0KV98NJ5A+Cjc9E5tAf4RR5M5+AFvJgYEcvBC3gReTCdp8JLpw1AKuJwSOAvJg/Ogs0RvIAXG054HfACXjgLNkefvDhvAHx2XjmL9gC/DfS8DngBL5wFmyN4AS82nPA6qfHitAFITRz4i8mDTww2R/ACXmw44XXAC3jhLNgcQ/BivQEI0TkeQoSHENmAX9UBf5gsbVkBL1mGb3e50JLu/GK1AcDki8nXZTiBF/ACXtQKYHxgfKjpaJeE5MW4AQjZeeUqdqrtgOtyEA9MHjo+5DLwAl5kJnRp8JIWL9oNAGBICwZsxnRTY7sM4wPjo02FOge8gBc1He2SIXhRbgCG6HxtDZ+Bt8NO5yAemDxoMuhc8AJeaDLoXPCSJi/kBgAwpAkDPTWYc8ELeDFTMqsBXsDLjAbzGXgJx0trAwCxw4ltRr1dwzYee65fvSqfLF/bbkHKyfMlnlPm5d9fObny/4n5Sky2a+mbNjfz53KbbY55nn3y+LHD767q2upn067P9vZdd/SJZVF+XybEo7ahLDfr88ZJ/tETa4c+0MiSEvP2d+91R/55VmRPl8yaJQl/8zJ///G1G/5sVsn+bCh/9xw8+qy8LJ9sb1mWlUX+3isnu/5nzN922nPw5r15Vj6u4ZeSvwu1NrO3n3jz4c83XnMhMVQ8qL5t8mBfc31bFkWDOE1xRG1szuepX1EuP7XMslcb7SxZrQt/eZl9hS3+b+Np1+MQ/t6zec/3s6nU7JdgfFnmn2LJdw9hX+fNU5EdYDb+RCbEQ3CBPs2zj7CCp9GFkWx2ivyVLF4/oLKR8rfMsztY/f3K1ygKhowvGys3MTOeqjCFzi6zq9ni//O8MMZ7bO4p7/4VZt+3cBttjuVSfobV+0257pDxkPu2ScO+9vo2/TngSjyI0xbHBipeJ3b9uJ2+jrH7G7t9bBtWjz0fMYndXx8+im2Mzd8YF3/xyoSobZfz2OMB++j1bToJQRxaHNuBELt+tn7Y1huDv+LkFuPka6u1Tb0xxMPGD9s6Y/M3Rv7E8WGru6pe7PGAfer1rYA4anFUwIv5sesn2urjfGz+YvJ1i7rv+Lr1bq7t2z7f7ckegD9ZEX3adzzQnn59K8SdYOywwj794AldGvtgkv2PnRfZXtf02OLh6p9cf4z+dr5HhDk/hL+yxi7pIeyLXb+x21d/Dhn7ZAn7XIam/7qxD3bZ49h5ke11TY8tHq7+yfXH6G9RZhPZD9t07P7CPv07a1OcY9FvugGIfbKEfSacwpbHAquLl7HvzNn3bxd2cXCJk03dMfJn45eqTvz+lku4crwYD7ErsLiqhiGdH//gpO3umgt/F2Onr4q/7/iyrwC2ni2i6tsm37d9vtuz8cGljm/7fLcn+4L1Q1ZEn/Ydj77tFbG/U4J9eqBClvaFS7bNd3ty+33Tvu3z3R77Dn0e+zuvvjEQX+9bP9/tibb6OPdtn+/2ZB+x+MuK6NO+4+GjvfoeAL3p7VIfnYutor1+7zTZY8fqJ/yJunY9jz0eXf1SvW5s/sY++ap0ts0fWzxs/VLVG5u/sfMH+1SkNfM7bQBihzVF+8pi4u3Sa+z6NRHunxqbv7FPbn0jMrZ4pOgvrszaRz1mnp03ADE7U4UkdfvssaRrxq4fbXX33LH5i8XfLda+4+vWu7m2b/t8t0d7kCt+q4KuLeb6tg/t9bty7LQBgNj9xA6tnzjQupyHtq/v4tXFJ91rxuhv7O+8sow9Nb/j3xjj0dHV6cvgb9zzad/5Kvb4VvZZbwDG4EzsN0iFtC+fsG8d9/iLPb49XCNfOkp/88VdXKOPB/vJQhKkjpnR+9vRL9XLYvc3VfusNgCpisNhHsNOMMsnC3tZjsfB1zF2nn35yduJ3l98u6GM6coO58bXMXb+UrbPuAFIWZxqAIxh8Y9p8vDNC/teOb7d0GMm9h0P3+1VruVZXr+7jn289QjF9KW+9fPdXl//5Nf7tg/t+f3YRLsBgNh+xY5tcqsGa8iPJXz4K08ofdKx89zHN+q1Y/PXBy8heaY0dskbWzxcfKPqxu4v7NtdKjcAEGfxF39x0GLyFdUwn/seH+Ye3Wr4ts93e7I34E9WRJ8OHQ997+ZS3/ahvTDrEbkBgNhhxDYPG7qG73jIvWDylRXRp0PHQ9+7udS3fb7bkz0o2SMOY/8Yiz3huPNNtr71892eHI++ad/2ob1w61FrAwCxw4ndZWD5jodsAxZ/WRF9OnQ89L2bS33b57s90gN8u4GUhcocJB5Ux5Z5vu1De2HXo8YGAGKHFdtyDNXVfMejblg4if6dV7a4Dx0RwuDl1Dcvvtvz4qTQiG/7fLfHns1ZhLwnwcfmXZCz96lv/dBe+PWo3gBA7PBiu4ww3/Fw6dumrm/7UmuPXU+ux56N3qY6setnst+1fGz++lisQ24mXPWX68ceD9hHr2/TSQji0OLIkKvSseunsrtr/hj8DTlZ+pjMu2pPvW4M8aDs7po3Nn998BKS565x4K+LPR6wT72+FRBHLQ4HXHeMXT+d7V3KxuYvJl+3KPuOr1vv5tq+7fPdnuwB+JMV0ad9xwPt6de36D+jCrnzjX1w9rVPP9TcS2MfTLJHffUL7a9sr2s6tH199XP1x1R/jP7Gf4+NSXV1eezxgH36xb+KbP05ZN/BDrHNYquHkv9fMdT11aUs9vjKPsXOs2yva3ps8XD1T64/Rn/Zr3NMZD9s07H7C/vimu+7xmO6AYh9soR9ttNGmHpd4VJZ47s9qp/Y33mxZ98u7OJAxaNPnm9efLfXxzfqtb7t891e9XhuXJk9uE7FzibPdzz6tFdgcbUJ2axOH7FnrczOfLc3a9nPmW/7fLfnx8tZK77tS609tjjUz/Wfqdr9LHb9untGv3Js/mL9oOOoyo0tvkXs75Rgnwql8PmxwRra4+j9xa/mRfXEQN88Rs+f5DAWf0kQQzLG+Nb3ABhsbxXH6IxoZGr2ZWWBX80TAXA8j50X2Z3YJ1/ZXtf02OLh6p9cf2z+xs4f7JMJo9OdNgCxw5qifWXBnjvm6S92/Ty5WTczNn9jn9xqYTuejC0eHd2sXzZGf3Fltg6f8STm+DpvAGJ2popE6vYZaTRUiF0/g/nOxWPzF4u/W4h9x9etd3Nt3/b5bo/2YHEfz+1bv9jbc9oAxO5M6vbRg9U+N3b97D2xqzlGf2N/55Vl+NU8O/rif7Ni64dtvdjHW4r2WW8AUhRnTF91ySfsW8c9/mKPbw/XyJeO0l/8ah4ZSyrTd3zZvsbbR2yVvb7t890epWmfPN/2oT0/zyGw2gBAbD9i8wEU4jJulk82efuux9jj6+qPqT78jYvnDN9uwLcbTINWKI99/I7JPuOudkzOVIyEWFyry67XXrt68X0XrbwsK7Nn5Vl5JetqRWDScJoLOpe93qlvdUS1l1/GvoP9SIMhzeI822D+/B27bDuAfc2uHVI7Wd2HO9Svqp5n/59Rv2b+/jIIHsFE36G2kSjJ87NssfwcUWLIGtLfnDFYMhbt/9h76/vZG+y7tl4RanzY29OuyfTLs0cz7be3y7Q5p1jpl9s1hoxHu/dmTv6PWLwc5jL26jz7BzZvnG62o0sN4u96meV3s7n5fQ89v/GGt7519UGdRbws9fVNmPi5JLNj6uLwzcSeg0dfwT7ZvMl5oMykxBkUgAJQAAoMokC+XublDXceO/xaXXdY33aXyu+OQ5yty6Rs8f+1vCwPM5CUWukgQxkUgAJQAAoMqsASe2f7Pf/4Kf/7wz75l+//Q6pnrG9b6xt5BQDiXFj8Dxx5GhPov1AAIQ8KQAEoAAXiVoDdGv0v77j18J+IVmJ9m90D1LoJEOLMxGGL/y0iODiHAlAACkCB8SjA7i9pzOFY32brWxXFxgYA4jTFYXe7fNt4UIelUAAKQAEoICrANgD/mKexvsnrW3U/54U/iNMU55oDq5esZMtnuD44QgEoAAWgwPgUWM82Lt2d7V4f03Nd+A3oXdW2Xc+nVwBsK9saswjtrWQrl9v6i3pQAApAASgQpwIXZxfvwuJ/cJ2KTrEIizXlmCrPt7+qfpAPBaAAFIACcSkw1DtrW699r0eu7RXYGdE7I9sAoh4UgAJQAArErwAW/3aM6psAIU5bHORAASgABaDA+BXA+kbHcLoBgDi0OMiFAlAACkCB8SsQ+69ozsu+Aov/+OGGB1AACkABKEArsJltkjfA0bWbua6fqTdf3U7F1t7yvHYebWkW4Ccy2Y/rsB81eSPlG5U3yZvPYajqsCdXTai6NnloD/rZcMLrgBfwwlmwOcbAC3vG/0vZDxEt29jbt05si7Xsjw/7Ogvpo3PRodjbE21VnpfZxvG1Qy9XlgsFU39Pnayfw+DlSgza67fTh37QTxijulOM3+ZzU3RaUWVd9dt74MiPs/Y6r1uULVRe7OuRL/vqmwApEVR5vjrn7cfeHrfT1zF2f2Gfh8nttOfNHdrrtzmBfgurn695mbeT0vznvAFISRwOhM9javrBX2wmXMYPeAEvLrz4rpsaf04bgNTEAVyYjFwYSG18wF+Mj3mOD5e+beqmyLP1BiA1cZaypRUbaGzrpKYf/MXiYDs2qnrgBby48OK7bqr8WW0AUhTHJ2Ap6ocnTHZ/wiR4wWLoMv+kxouLNjZ1U9NP9Ne4ARArV2J6uVt9RDfk2ACkq5O6fqnxAn91o6FdhvGBzU6biuFyUudPuwFIXZy+GKauHxZDN4LACxZDF2JS5MVFH1PdFPWTr8wqNwCpi2OCx1Seun5Y/E2ENMvBCxb/JhH6VOq86NUxl6auH5+fyQ0AxNld4vGR5kHEa4AXLF6cBZsjeAEvNpzwOjIvPL/rUW6PL4YpttfaAEAcDE6XgQBewAt4USuA8eF3fKiVtitBPJrxaGwAIE5THDukmrXkz1jwWwtNfXQp8NePP+gH/XTjSy4bIy+yDy7pMfobev2oNwAQp9/kIYOY8mUlWQubNPjrxx/0g34244zXAS/gpWJhugEADP1g4IOKH7H4cyXsjuCvH3/QD/rZjbStWqnxUj3UDVdm6eeSFKnB4NtfeeBh8ZcV0ad9xwPtYTHUE9csBS+LzUsz2uk9x8a0HhXYGdE7Ixkc23Toz2xs7ajqYXJb7MkN8UV8MR/YK2BaDE0tLeJ4q+8BgDim8IctX0S4dIrBXyxeOj7kMvACXmQmXNJY32i1phsAiEOLM1QuJjdMbi6sgRfwAl5cFMgyXJml9Sqw+NPCDJWLyRyTuQtr4AW8gBcXBbIMD3VT61VgZ6QWJ3QJJnNM5i6MgRfwAl5cFOhXN4XxVt8D4CpVCuK4auJSPzX94C8WL4wPtQIYH/3Gh1rZbiWpxKPTBiAVcbqhY35VavrB336TG/SDfuZZZVYjNV5mnvs5S0k/5w1ASuL4wanZSmr6wV8sXs0RoE+BF/CiJyRsaWr8OW0AUhPHN2qp6Qd/MZm7jCHwAl5cePFdN0X+rDcAqYlTPT7SJ2Cp6Qd/MZm7jB/wAl5cePFdN1X+rDYAKYrjE7AU9cMTJrs/YRK8YDF0mX9S48VFG5u6qekn+mvcAIiVKzFTe26ADUC6Oqnrlxov8Fc3GtplGB/Y7LSpGC4ndf60G4DUxemLYer6YTF0Iwi8YDF0ISZFXlz0MdVNUT/5yqxyA5C6OCZ4TOWp64fF30RIsxy8YPFvEqFPpc6LXh1zaer68fk5p6SCOLvLe7J7dmVZeReljybvwRNrh7cnqd/mqUeXy5NHc202J/kGP3c9LhXlsvwaqr2lbLJ+vsw/867bDn1Zri+mk4zH6ZOzsb3j4u3scahPY5r8U8b0w8os38V2/udZ+r5Jln2myPL/fHzthr8VNRPPF0G/aw6s7lousuLOW1a/IvpGnS+Cv5Rfqrwx+bu5Y/k+5sfFKl/o/PzqE2uHTvKyMflb2cwXa26/61Hn72ySuNCqrrJrx1X9sba398DR3V02ALuyKx8qX2ZZ5Mct7zl48968nPw2C/VDuvDh8TVfY219qsyzW+88dvgW3u5Y+eP2ux4rf89cdHL718+v/HheZvuyPPv2rCy3W7TD9gL5P2R5+YE8n7zu+C2v+m/Va8au3/7rj3wD2zz+CRvL33hBg7vzYvK93D9Zl5j93Xfg6PEyy57LfFlidt+XFdmP7ppc+R8XeX6R49F3AyC3F3JxldmySQ9tX2MDMHTnNoKIdYa0r+sGYOn0xuXc5kWHa+91r35ktrT+2azMWu/YuQbzOebn8rx8S3HJJS/Pvnj/Jrdh0eOx7+CRf1qW2evYQv4vLywS3PUuxy/neXbssnMbv3TmTMY2B2HfiXQx0GY+2HvwyN8zPh8ltf+1U1dv7Pjg6mrjKpVNe1I72qTP9tji/+YyK39M6nCyuZw95p1vOvwFKd8q6dO+qsMh2rsnu/t+1lWnKwBD2De2zVh9DwDE6fcZpDziFn2xqXjJi43r41v8q0iUF7GF8PrNM2fv3njYyt4qZ5Hjsf+6m76JbVj/lPn8Uebq0z0s/pVkD2ftver+bSv3bO5c+dkx6ve8a1cfRiz+lW8P2XnXyuHqhP/FPP/t37+6rczLF3JbhWOxtJG/Skhbn8bsb+UE7Ou3HtnqN90A2Fa2pSu19mRdxjhZyj7o0jy+7HL743T15l9WXsquBPz+xs7lt45tZ26rHXvX/5rNIv80W/Sfavsat3rlpewjhJvZPTGf3nfg5m9ze+1Wbc4Lf+1Q46NYXtbYW76E2zMv+3j/puNk58ovKjfaefnNptfL5bH769u+6qFuKX0s66Jf4VJZBolKp9aerMFQk5vcryodNB4l2wKM4I99Fv6Dew8c+djq6mp9xcvW7KD6MSO68lLd1Lb34NHPsHfpP8eacfbL1v9ZvfIby2zyN0zHG2Z55rNY9WOWX7nn4NFnRWzfVNzKvrIsX6xUumQf1Dj8jcFfn4u1LE3X8cbbWTT9Cp9iL5o4POgux0V9p1lpIMc3Y2+vXbSZc90n/fe7lj/mYoPsbyyTx77rjj5xJVv5HHtn7vzuz8V/om610TjKPo9+L1HWyopVP25ozq5sxD7/nSrv+VfM3p3c5j7H2OPh2z5Zq1jGL7fLt79d2qtv3oI4PCzzOXYJns7SIdq7t7ybvQGl/9i1gd/Pyry+AU+uxd62tN61sramN5vJdXVp9v7n4WwhfCy78e0b2WVw7bsh1v4T2Lvm//fEsUPfp2uzKhtCvy6bxee/+Mh3TYryQ8pLwi3H8vU8K9lX/PIPs8+R/wt7w/g3Wbb+leWNpUs3s/zh7H7yp+Xl9KbB72Ivvar1ciKD3Yz27H0Hj/7F8WOH2NcK6b9Y9Wtamz9lc8fKFUun1++Ndf4rdyy/umlzt1Ts8fBtn6xSrPHlds7LvukGYF6dc+flo28YfLcn29s37du+odrbd+CI0vXLz2382FvfuvogVSGEfSezk5cv58tvYNckXsD6bG0uajvK8nvZJuBmtglQXsoOYZ+Pd5rVO/9Jnn2QbXjqjXvtV+sk/xz7utvNx285fGuraJbxWXb6p8zfX6/sW7/ioquLyeYvs7w97H/brFr7jF2Wfgq78fDP2fer/5lcGqt+sp3TDWOe38zmvwNdNmO8vVD+bl6+nW3INr6d2cm76nQMZR83Jrb1g9slHmOML7dvnvoV8+ycCyAeY4dVtNXHeez+jsW+i09n9y+f2rh2KS+ewOKifTAQW0Bfse/6X3wyFb9Y/d1z/epV7N36n7LFQPsrlWypuIddFfkBtjB/0/FbbtQt/lP3RX9X7j13F3uOxQ8/9Dz7Kmue/w67amBYecrvZDchvlvUUWyvyo9tfhFtvXD+gmgXh6WN1083KYTRtlmxx8O3fZQu7CFY61S+TZ5v+2Jrr4gWfhadEUweNgwp68QGg2zoGO27/dgNn2DPYmA3rOWfkP0R0sVkUrxPSE9PY/Y3n6x8lG1cTA/0+d0nXb3x8OPHDjcWZdlPnlb5W125YVdIfiSfZN/B6t7N61NH9hnQ97MrKq+sylTtUa+zyfPdHtkn03TPwZt+lCwzZPq2T26Pxfv7DSZoi+X2YptPfdunFaNDoW/7YmxPfanUIFiMzogm+7ZPbNvHuW/70N7se7O33756/klXr7MrAdXX4+g/drPALvY5dnW5e/oXs37sYTYn2DtBdo+D8m/CPt//MfYY6heybzpY3Udh4+/x2w59nD0w52qm458pe64Kyuzo3hf/0nf6+JiD92NjH6/b98jugTjk2oZv++T22BPvfprZdLGrXby+3B4Wf66M3TEV/TptAFIRxw4V91qp6TcPf6uFcGl5nV3mz8+oIsTevb68eljMPOxT2STn7zlw5Glsga0+k1f9TdiXMa6589iNb1FVkPNd/K2elsc+TvjnTMd3yO3M0uzmy3yzvuoQ22Izs1N59i37D978eGWpVOCin/RSMkm1x/R+GVnZIpNqb5Gv9FpI4lQlJf2cNwApieNEjWXl1PSbp7+3v2m1+n2Aa9ShKVeKbcu3xPzOlX2er1l42RfZ8mzv8WM3vlftY7OkazzYJmAPuy/gI83WGqmHT3Ysv2aEi//UiUlZvrbhjSLRVT9Fc+THJvcWX65u/GNXXtz/hrAvps2Eu0L6V6Smn9MGIDVx9Ki4l6amXwz+soXrA+wHcdQLZJ7tW780u6SKZmyL154DR3+Fvfu/Qklanv0y++GjdyrLpYK+8Xji7vWnsyaVN1iyzchLTi+fvEjq1jrZ1z65o7Kw/40K9hHKs6pH7sptiGnf9qnaK8ulN4r92p6r2rN9vVwv9vZke/umY/c3hH3WG4AQncf8zqt6fGRfoMTXp6bfqWJ7NI/fXC839rNLqvSdwOyHjIqLlo/Gtvg/+6VvuIi9+/9JkSHp/C90X2WU6pLvNF3fyU3vL9jM2COHFc93YFpubK68We7bJh1ifNj0W9dhtk92LivvBQhhHzX/7X/J6kPYzX//orbL8mQo+yzNaVXzbV+rg54Zvu0bS3tWG4CxOMMZ8DGZ87Z8HFPTr9LsskvP1g/l8REParK0jc2711a/zi6pKj8jZ/cC/KDrYij2HSK+28/dz57/rrjrP882ymLjX4s26M592nfizYc/z/r6NVV/7EOJ5//QS1cfqiqn8n3aV7Uvt0f1SeVNyqz+fQCxXG4vJM/s5/1ew/q2mpe5jUPax/t0Ofq2z6Vvm7q+7RtTe0bQxuRMFWzfg9MGIF2d1PSTtfAdj67tsa8GvpR9FND4+VduK9up7Njz4pufwdMux4DxPaiyg91x97o7b1n9iqpczA9hH3tyXvUQpXvEfoTz4sFzKzcLae1pCPvEzaK2c6mw+mbI8w/c9D1idmj7ZJ7ZZvT/FPs3nbOPLnLRX7k90+vl8qH9lfsfOh27v6Ht024AQnceO6x9YUxNP1mvmOJbfTWQfZ7+n2QbeTrPJ4f5ue0xVHw3rlh6GrPhctKOPD/7hN3TBZgsFjND2Tfto8j/ndiXeM4eFWy1iAW1TzTI4XyS5Ud59dD2yeODPVTpB1nfD+H9ux7l9lxfP7S/XexzfY2u/hj8Db25U24AUhdHB45NWWr6yZo8cGZ7Gdtl9aVs8vOynbN07vS5a8j45pP838/sks7K8pjNd/1D2ldZtGuy623sisq9knU8efm+gzc9hyeoY2j7qsWQPchog+pbn5c/pfqlxSHsk8cHe/evjrveaO9XPmPfTBjkMBbPI75Go4QKQ9lHbgCG6lzw1+l0CPvw+EinkLQq75ycpW+6a9VsZwSL7+nJ/2S9KS5dl5dWD7NpW9POCWbfrKt/NjttnE3YY3pf2cghEqHt44sD+w7ifyC6n2axJxMpv8c+lH0q27byFTcysh+UWs6WXxv6nZe8+LMN07cyu6p/4k//SGYeD+KFVllxxENtqmyfuqZdidxeavqJ/rY2ABBn9kQ5O5yatVLTr+l9/1Ro/ZiFf6C0Mt+8Tll2oSC0fRcu/5NfR2OfUX9c9QNL3O7Q9omTx+Xn11/F+iWfPMjuUyCvqAxpH9eEPObZ+8l8lpnn+b/hZaK/PM/laOsve3S18sZK1t+fM6uUv8sgbyZC2Gfbpq2/XduzfZ2qXmj7huJF5Z+cb/K3sQEwVZYbN6VTa6/SY+h3DqYYiOW+48F+WpatSf7+fNtHtTeZTH5dZTGbhKvP3pV/VHu+J1/2BlS9CSnKNymNYwVD2Cf6W21GmGbsp4apv/Iy+el6Q9tHWcXzGLh/xc6/ytONI/v2xeaObT861GT+zNXV6tcdGzcfNuzJS+VHV+weQOXGoNEGkYgpHoR5JM9UPdu8MforjjdbP3k9G3/rDYBNZd6wzTG19mRNhpo85H5V6RDxYF9T87YBCGEftRl7x22v+kv2buocpVOeld9M5Vd5Q9nHJvT/lbYhL4t7N3+bLhvOvnb/5bvaeVs5G+Xkh3nZUPrx/uyOufqZBWzRDT35cht33LWyym5QVf3E85dPHDv8YV7X1zHOeMy8g33DXImebgAgdj+xZ9hunaWw+IuLq+y/a3oO/H1WYePF+1+0ulMuG9i+h8v9X0ifnH6TgSgc2L6GBexS/xsaGUKC7Q6fXiXnaZ9gTuv0oefXD6sfalR+s3wFo9WAIsPVX/ZbDtcrmmLZ+W9W7anL3Utc7TP1EHt71UPdxPkqtflZ528Re/Bit08eHDqx5bpUOnZ/ZfsoH1zy5PaG0a/8qMrGzeXlZ4llQ9r33JcceRR7YJFisi/ZlYv235D2tXvPMvao5ZPsQ/OzVBn7lsDj5m0fadeFzAv3U/yxqs5mVv6qqkyV7+rv8w8e/W71457z9aVLtzduSFT1a5vvap+p3djbk+0fZn6Re1Wn561fgZ3Rwc53q1NhHeqyIdW3nBcaLjbxd/78sbI1tH3KwV5mfyRrVafLrL4PYGj7ljbz59V2yCd5/l/lrKHtk/uv02X2pfpcPCmzHbHPL1lZKJ9nwDZj3236fQDR3S7xKDU/QsSG1x9mX7x/U+yjz3kX+3T9xd6ebLtyPpArKtKx+9vFvvoeAIijiPpA2V2CpzNtiPbYY187bwCGsE+1GVtaUt8Bzi65/pNK1/nYVz5JFVP2pbX3iGXzsU+0QDjPy/8upMTTYnPHyvTHjGKbX9hjf6dvfpa+eu6v2ZWKL4hG1+fVbxvsWKm+6WD86xKP6nkD7CZKZcyLrHiFsWPLCl3s0zUde3uy7bHxF4t+0w0AxJFxGTYdCwwqrxfNvttvOVy9YyW/vsZ2NA+fo7/fpIrB8dsOfZyXzdE+bkLjyO4F/UQjQ0yU+XfGNr+I5k3Py0xzqb9UPpKZt9M1Hsv5Mrt/QnUjbf6p7NT5T1d9VPrxvrocu9qn6iv29ii7VW8GqLpyXuz+9rGviG1w9nFGDlyV9t0e1UefPN/2oT3bGzrpz63ZNwHmdtmaLaSPoFma/ZJhjPFlN/upNwDF5IkxTb6yvtX8d2LtcPUd/AflsirNfGv9PoBYr0882Adoe8S2xHP2GMNfrtKYn0VVup3joW5q3YqYBmefwUS56Ls9qo8+eb7tQ3u2i38VtfLrdOzy+lnsQ0++1eaDtmnL1ljju5TnH6PtrmTOH6ksMxT49lfuTowvex9+p1zO0+z3AX6Jn4vHPvbtOXDkp1hbF4vtCedfWz61+TbRPqHM+rSPfVQnsbdH2dwnL3Z/fdhX3wPgKpSPzsU+Y29PtNXHeez+JmDf/XQct+7Cn8vkm2fkEwDZ29CzMcdj/dz5u2gtWW5e1hsqZR2iwLe/RBeZ+OZnczP/mcpYqh7Lf/Ke61evEsv62se+Pqm5+TD7vbnwJzoonff1V2oOV2bZlSeRP1kfU9pXPDptAHx1zp2MvT1up69j7P6mYB+7+Yp8GBCL8dw+FmOrj+IrgNl6zHfTX7Vt9xnV2GCX0J03AL75o2wr8uY9IO+67dCX2eWK+j6L5mvYMy/LldfwvL727bv+F5/M+lJdGZksrReHY1gcfPnL2+HHvvrxdkIdfdsXc3vOG4CYnamA8G2fb8h824f2uu2k2YxObwDybG4fi7GnAC6RvJXZeZ4f+ztDbic/su+JXMrPbY6+ebbpc1YnPzQ7b53tr3J82Dcpl3691XqdkX/09rfccHeddDzxYZ/YZeztibb6OI/dX9/2OW0AfHcee3s+gBLbiN3fpOwr8w0xNvU5e7NXnzue9NaPbT7oLrd+uS7uxV95+Vx1VaPlam/9pBbLQvl4XanmVpI91Og97CrMabKQ/T7AnoNHru97JYZ99e8SptR3kX1UmZrn/itfc6HAt36xt2fSw7U8dn9D2KeYcNrShei872ASrfRtX/X4SLH9vue+7Yu9vVPF9qgfv8kuwV6kiCn59UBF3Trbdzzqhi+cxL34y9a6p33rV7XnbkX1ivw21evYFZr6e/ld47EtW/kVxh59pSfP/qHrc/9D6Bfz/KyKUdf81PTj/lptAHhlLm5X+Pnrx9Aet9XHcQz++hzslWaXXXq2ficdIy/srm9vGwDf8aWYi/0zYcpm2zzf+snt2dpR1Vs+zX4fIM/oq0NZ+ZjJFRf9kz48sysML1Tbo/5dBfVr/HwsIbYv69fH36pd3+2Jtvo4923fmNozbgDG5EwFg29Y+wKWmn6yXr7j4as9tju5RLZ1K106PRrad3xpm7rn+rZvbO25Klf94BJ7HsOHVK8rJ5u/0nUztvfgkRewd/+X0W3n66d2r9c3GtJ12rns14Bzn5v32OPbVqBfTuz+hrZPuwEI3bmvyZwj4Ls93m7XY2r6yTr5jofX9sqMnojz7GuyH6q07/iq+uma79u+sbXXVbciy39S+do8e6bL7wM02inzX2ykm4n3fHB1VXHloVlRlfI6PlgnMban8r1L/th4DhEP5QYgdXG6ACW+JjX9RN+r8wfObI/ie67cLjkeLJ++AlDmiucD8Ja2jnJ7PgZns4d+qRD2je2dZj5RXcrXa3t87Ya/ZTU+T9Zivw+wuXNllSzTZO5/0S/9I/bu/7GqKpNs8nOqMpt8H/yNKb42mujqYHxsfXuK3ABAnN0lHh+pGz7msp2Ts06X0sUWQ/N38cWXVjeIkQ/dYfcGsO+D6/9C26fv3Vwa2r4UFhv2nAjN5fjygDkKsxpVPDaXNqvHDSv+8r99x9qNn1EUGrNTiIe4OTEKYqiA8TH76nRrAwBxZuIYOCKLU9OPFKFH5hD6nbnk3FNUJrJfOPykqqzKD22frm+bstD2pbLYsJsBb2V604+LLrMr9hy86fts43H+/El213/+PZr6N2nKjEVd70moGh4bL0YxDBXG5m/o8dbYAECcfot/xZ64Uw0dPAPrrWLf8WVfmWf30vn7822fqj1m9HerrS7+SlWmak9V35Qvt2eqbyqX21t0/kL7yxbtd6g0Z4/yvVlVxvO5ffdftMweMLT1iGleNjvmD7DnD/zeLO12xu4BVDy+2NwOt4/XHAMv3NYuxzH6G3pzV28AIE7/xV+EcgyDqS9cGbtdWvS5z/mQ/LGn0z1TZevm8uS9VNkQ9lH92uYNYV9fXsa2OV7P1l9WPZmHjEGZf4f8+wBivUY8ykz5k8JsAP2O+Lqhzhv2sU5TmK/Gxt8Q4226AQAMWPxdJh6ZF5fXUnXl9kJPRmxGfzxlB5vs19/5psNfkMuGtk/u35SGff3Gr0q/d6+t3sN+ofGvaf3Z9a/J8mupMrG9jZ0rz2B1rqTqsbzJxRet36Aoq7Or9uqEhxPRvqq50OPN1WTf9lUPdcPif5C8J6vwLXZq7clwL/pgkuMr+++altsLrd/+l6w+hL3r2qWw86ScP7R9cv+mdOz2sUvfo/6eOvuUS313fp4/X46PHA92T8kvy3XqdJ7/17e9cVX7rRO5vfq1HU/k9kKPN1czfdsn97/o/rrqV2BnRO+MZHBs00NctrG1xRUGU7tyexn7RR3Ta3TlcntDDM6NjZUXq2xiH6d+RCybh31i/6bz2O2T7R8ivnKfurSNfnccO/Sf2ZMB7yXbufD7ALxMbm9zx8oV7KoS++U/+q+YlD9Pl2zlyu3p6tqUye2NMR42fqrqLLq/XeJb3wMAcVTYDJPfJXg6y4Zoj7276bwBGMI+ajPGLuleq9JtKcvfzMvmZR/v33SM3T7Z/tjml0mZObz5yddkf3ia/z4AFQ929ePV1RUQXrd5zO+649bDf9LMm6Xk9mYl3c7k9mKLh2/7ZJUW3d+u+k03ABBHxmXYdNfgqaxEe/Rnwhee4PbttG75+vTdHiuEfrR+tG7m3NjmF9lik31Lp9ZXdb8P8LwXH/0OxZXUfXJfPM2uNr2en8tHij+5jkuaao/aHNu2GXt7lB+L7G+feBQm+Ckxxbw+nYvt8PPY2+N2+jrG7u8i2ccuyb6Sxa2+6iXFcPr1v0XyV/KPTPr2l+okpslXts9m/qt+H4Bdyv+A/FqeZl+GrW8G5O3tOXD0J1g5/bRJdrPpk3Zv/Cp/vXj0HY/U2hO15Od4qBtXon0sYhqcscPalq9fTuz+Lp59ZTUpk3/so4HfWjx/SVfrTN/+1g03TrrfJxLaPr5YN8xVJNil/p9SFLGLA9kztz0iu1hsj+UpP99nZe9eXV1t/ey0b39Ta08Vn675Keinejdk1CwFcYwi9KiQmn7z9nfPwSPPZeFSfB0rP3dFduXvKS7jdoryvP01Ge3bPlN/ruVD2Ofy5mfr9wHyz9F+lEtfP7dymLdXfSTAPvv/RrouuwQ1aT/337e/qbWn0rprfir6ddoApCJOV3hMr0tNvxj8Ze+63qiMS16+N+bFv7I7Zvuq+Cq17VDgmxfKhCLPWu/AqXpiXl5MlE//Y1eQXsTrsraVz/1nvzHwidtvu/GzvG519O1vau2JWvo4T0k/5w1ASuL4gEluIzX9YvB374Gj12Vl9ig5FlvpvFzaWKov14qXcen6+lzf/sq9xWaf7K9sr2tabq+vv6796+ofv+VG9e8DZNnOfQdves61165ezNp4mqod9lyB/0ss8+1vau2JWvo4T00/pw1AauL4AEpsIzX9YvD3mgOrl7APad8gxkE6//Ps/nN/X+X1XWx8+yvZGZ19sr+yva5pub2+8SiLbNnVBl39yj5WflxVhz0Z++b7LlphD/4plxR17jtx7IY7eJlvf1Nrj+vo65iafpW/1huA1MSpHh/pC6yqndT0O1Vsj+LxmyvZyvvZbxZsp2PJnmSQb06f0953sfEdX9ne2OyT/ZXtdU3L7fnw19UGXf2Zffkr2DcCSrpu/kRGVP1RQKtOnv8Oz5u1t5Xjw9/YPybyaR/X0dcx1XhYbQBSFMcXWFU7qelX+XzZpWfZx+5bf/Oa3PYdPFq9G3sqt6N9LP9w+dTkk/Oyr22POoffYKauoS4Zgj917+aS0PaZLdDXEO1bOr3OngpY/jf6FdOH/jyELssmS0tbz/0X26vqxsZf7PYp9O2cHbu/Ie0zbgBCdj4G+DtTdeGFqekn6zWvyW3vgSM/zR5UyN6tKf/Or2cbPzwv+5RWeS5IjT/Z375yyu1VvLArAOrfB1B3+Me3v2n1a1R7fTZ37IFCo/6tBbVcw5T4jsfY2tNuAMbmjO/JvC+Cqekn6+U7HrbtsZv+qgezKJ+0VtmZF8VP7s5239dn8vUdX1m/vmnf9o2tvVD6nVg79AG2C7jHqf1y6ed86yf3bzs+5NfxtG/7QrTHbfVxDGGfz485hrBPeZPMEJ3HNPnK/vYFTG5v0QenrNcDZ7aXb/sP3X9oqYt+7C7sby3L4j+yS7SPle1ppvMPXTG54q2x8XeP45rS9KmZ6qJfs4Vmaozt3TO5e0P53Meme62UyV/29L9b2DdLDrdeSGd8aVe+82M+Fwe5m0WfX+p47FAuWbIk2nTd3oVayegn+UuqCXF2l2wyJn8/WUvVhcLU9KM02Tk5G1y/Z66uLl/xxZXHT5ayZ7Obr/4PdkffE9jiX997QNnF3vvftXTp9mevvX7YzQlty1ZuzctOP/ed1u1d6DTVyW3vdUd0sivLbPQ7tXvj3+88ufwLbBNAzqFi44zIXzt96mTNZd94iG1X533bs/FX7lOXDt2erm+bstD2jSkeLXghztYPobDLyDYsteqkpl9LgAsZ929bPss+h1cVa/Pvye5ms9oMzSpNtnUXW+4L9miV+p7s+kTRfv5ANll+6u2vf/lZRQVjduj40gaUj2X+m5yrX2qtX/0K/Ylde3bmhdZvqMn3g6urG/sOHP2jMiufrVcvP3f5ufXfOHOhUl/7qL5iu5Ll80qHzAvlv0ue3F7feIy9vcY9AGN3xgWEqq5vf6s2Q8IfG6wle6pJ5fM4/vIHJkXxxBO3veKLXe31zYvcXle7xvI62d/YeHa1b1LmP23UPs/efebM1lMH+/pL9cXuAbTbeREvdvWXaKKRNUR7jQ4dE0PYN7bNWL0BgDiL/ROoIeLLvl8/jg1Ann2BzRWPe8ctr/yc45xRVw+hn7xZrDtbwJMh9Bt68r3z1hs+xUL1GXW48nKSF/+uKg+x+Kv7NZcsYjx0XsNfen2bbgAgDi2ODihdWd/BPrZ46LSYb1n1oJ/s989ue+i3sju3T3a1JfZ4dPVrqNfFrl8f+9gbcM1nheUnVu49d5eP+cBnrPr4S9kRe3vVQ93kzfbQm0VKN543T/2KeXbOBdAdY7dPtt3HYB8TrLL/8aTzT7HPZ59+ZXnlj/zBG3/qXFe7xsZfVz/DvW6xv6d+57Eb38I2mfeT+pXFDb7nA7Ifh8zYefZtnyyN73iMvb1iTItNbGLLcFXplHaWWd7980dKu/55lT35B9iz/5/Bntj2hCuzK/9skePRX69hW4ht/PpabJbKcj9jbkNS8+278iv+wCd/UvvOSV/+8o5jb4/byY+Lyh/3r0s86lutIQ6XcT7HLsHTWTpEe/eWd5eqO5BY/vuKLN9U2cjenbfuH8iF+/lVr6vy2Wu/mx22teuU5dLyxg+wLw2cXyye8zNMrA+L/vbRT2yHn/dtj71eezd8bPGYlJm3Nz93rN34vh+47ugjl5bKn2cM7yzyyW/vnFz1ESz+nC7z0fd8JfcYG3++/e3a3nQDAHFkXIZNdw2eysqh2tun+Zrf5ec3nvvWt64+SNnY1769B4++j92A+Cyi7WJzc/mFu3ZceavPyTeC8fGl42uHnsP97asfb4cffbTHvjY7UT2DIQL9uKvk0ZN9p1njr6w68NRevUGu2uvzkCgf8RWFi7090VZ+vmDzAXdreuwTjyIErIssdkN5D4k+waO6T6E99s3/Wyjfp3ll/sJF5i/2+FJxiSkesn2Y/2RF9Okx8reZbQZ/KJletVlpbPoVMQ3O2MSZhS3MWez+xmrfncduOEF85sqD9B38xPUYq7/cj9jt43Y2j93vE/Htb9OuMO/UMZ/KKqvToeOr7tmuxLd9MbZXPwfATpJZrRidmVkX5iE/Yvt9z1PTz7e/7EaAT1DrSIUAAC4pSURBVNAxKC96/sGj1T0CTn++7UutPSexLSr71o/qEos1pQqd5zsevtujre6e69u+WNvrtAGI1Rkebt/28XZ9HX3bl2J7LBZvV8VjkpU/oSqj8mPXr7I59m/rULp2zfMdD8qOIt96Oh9VZsrzbR/a8/scFlP8TOUpxcN5A5CSOCZQupSnpl8ofyfnN97EvvJHfwmhzJ5hG5tQ9vH++37GzNvhx77thfaX29n16Nu+rnaoXufbPrSHxV/FGpXvmxenDYDvzmNvjwpAn7zY/R2TfStnsq+zWHxJEY+de1905NGKsjo7dn9rQy+cYPGXFdGny8L8S336FpqlsfOSmn3N6PRPpaZf5a/1BiA1carHR/ZHatZCavqdKrYHf/wm+9rZe2cKS2dLmfaHWmKPh+RNkK+W+fwMXLbXNR0iHq426OqHsC/2j3Vitk8Xqy5lqcbXagOQojhdIFK9JjX9Kh0uu/Rs43vMPhcb/k6YPYjwtSrNWf5zVWWxx4OyO4R+VD82eZR+Nq9T1aHa8+mvql/b/ND2cZ5t7ZHrpWaf7H/fdGr6if4aNwBi5Uro1GAFXP0UCMnL8WM3/p3yOexZ/phrr129WLY+dp5le/umY/c3tH2Lrh/7MaI85nfqvuPbN57y633bN7b2tBuAsTnje7GRYXFNp6afrI/veFDtscsMfyz3u5Uu8/svWnmxWBZ7PERbfZzH7m9o+/pqGNo+iuc+NvdtL3Z/K/v66CO/dgz+ht7cKTcAqYsjw+KaTk0/WZ8HzmwvfV7GVU5uZc6+DaD4K7Mf5iVjiAe31cdxDP6GntzySesHeqyljV0/2RHl+JArKtKx+yvbp3DDOltuLzX9uL/kBgDi7C7x+EjrsURW3Dk5O8jjN0+sHXoP+zqgoq/ySZVxY+OZFNQhc2z+8snIwcVG1dT8bTjPEqnpJ/vvmk6NF52/rQ2ArrKr0FV9tNfve66x69eFCd1rOvmbl/9D0ea2fQdvek7od5o+r3Qo/LDO7qSfpnW0F9f4pULlk7/YNxOU/y554LnJc2MDAHGa4riAxeuOabHpO9jLPK/v9Of+9zl25q/M36buN/9xXtbX3872cQOko9yeVOyclNuL3V/Y5xzi1gvYPYD0w7BaNdsZY+Sl7YV9zhj9Db25qzcAEKf/4i+imMLkxn6S19sGoA9/69n6b6meCliW2dOquIwhHiI/rud99KP6Qnv95gPf+lEx6pPn2z60FxcvtvGYbgBsK9sCl1p7si5jWGx87ixl/13TfXl599pq9VTALyj6fdjGlUvf4tPf1OILfxVkKbL78iw3W7Un5/VJh7Av5iuf1UPdYrZvnvEo5tm5DcSx2yf7kNpkKfvvmvYYX3YzIP1XbBROPw4ktuLRvmmzqbXHntaY1PfUQ8dXZLPLeWj7Ypv/ZI1is2/e8SiwMzqouINcRscundI7zYw9is9OFbqWT/iXJpPX0L2wJSjLrlGV6fJ92lf1k1p7sraYfGVF9GmZF31tc6nc3qLHQ1Zk0f3tEt/6HgCII+MybLpL8HQWDtFeXrJP2Dv++bZvR3HVF5kpX1WY86hrDqxeoigjs33bl1p7sqixzS+TMhvVmx9ZT9c0+BvnZ/S2ce4a3+kGILbB2dUZlVi+21P10zXft32ptse+k6B8KuBKtlJ/G8AUp1T147r0nQ94O/zYtz3f8eB28WNs9lH+clu7HKn2FvlKJaXRIvvbJ77FGOCPKXgUXH3y+gSP6jfp9vL8NyhNpnl5+UPKMqEgaf2YDn3nA0HK+jTm8dvXX/AS1zvrGjrhBA91E8SQTouYBmfsg0nSrncydn/HZt8Vk13vZ0E5TwamzL+dzBcyx+ZvbIuXIKVw2v0+Ed/xEIyansamn29/U2tPjm/fdAr61fcAuIqVgjiumrjUT02/Af39OB2HcmXvgaP/mi5L7wY93/FQ6do1fwj78ObHPjq+4+G7PXtP7Gr6ti/W9jptAGJ1hofWt328XV9H3/ahvdllSHZX4u8q45SXL6HKYtevsjn2b+tQunbN8x0Pyo4izyZUvk2eb/vQ3mz82ugfuk5K8XDeAKQkTgjQUtNvaH+XT2/conwqYLb1VEAxrkPbJ/bd5Tz2y9ZdfBJf4zseYts+zn3bh/aw+Ltw6ZsXpw2A785jb88lMDZ1Y/d3Eey7/fbV6h6Az1PxYJ9GP3TPi29+LC+L3V9uJz9i8edK2B3LIlu2q2lXK3ZeUrPPLmr2tVLTr/LXegOQmjjV4yPt0THXTE2/U8X2uT1+k/1CwTtVEcnzyc9WZbHHQ7Yfi7+siD5dxVdfw600dl5Ss88teubaqenH/bXaAPDKXMbYJyMf9nFffRxT06/S7LJLz9Y/FOQjHi6fgU+Wytep45Y/J/Z4ULbHfsMaZbNtXuh42NqhqhfavqHHh8pPnh+7v9xOX8fY/Q1pn3EDELLzKoCxw98XstT0k/WaR3zf+abDX2A3A56WbbmQ/oaT2cnLedk87ON9D3FMjT/Z374ay+3Fxgv7NeCkfmuhbzzl18ce39D2aTcAoTuPbTDJ/sqwuKbl9mL3t699sj592+ujX57lH5Lt2UqX+Uq2fKA6n6d9tG1+c/voR1kytvYoH1zyYvdX9iU2nkPoJ/vcJx3CPpcrlSbbh7BPuQEYovOYL2uagmMqT00/WY8Hzmwv5xnfssx/TbZJSL8gxslSsK/3aWr8Uf7mk2yjq5BUe/Pk2eRHjDyHXAxNepjKY4/vUPaRG4ChOjcFSVU+hH14fKRKfbv8nZOznX9l0Ud877z1BnYFID9HWptnj49pMpf9JW12yJTbS21xWHR/ZRQW3V+ZZ9l/17TcXmr6if62NgAQp9/3UlPTz3Xwmep71u9jZH9ltrzn4M17yTJDpmf7Wt9GMHRvLA5tnzh5GI0hKsC+fvMLIWkW82bWNy+U/y554K/JX2MDAHGa4riAxeuGvOzlezD1ba/M2e/vefzzzV+WZ29TmZdn5fWqMlW+b/vk9lT92ubL7fWNL9rrNx/41o/igN0DGM1Pcvv2l2qP0sA2j2ovpc0TNR/UGwCI02+wyxBSYst1dOkxxCNjH7TrfHApC+Hv0tL6W5gN9CNfy/JfzNs+ebPoYo9cN4R+sn2pT5ay5rq073jo+upS5ts+tNdv/ZiXftMNwLw6twU3dvtkP1JY/MXFQfbfNR0svndPfxnwswp7HrLvuqNPVJQ1soPZd6GX1HiBvw28jImKP2Mlhwqp8Vw91E2cr8DfDJYiNRh8+zuTcussNbhk/13TvuMht8e+DvgupU1F9jJl2YUCub3U4tvX3yxL63vqoXkx8WoqD21fX1582yfrEZt9vv11ba/Azuhg57vVZbiqdEqXSbO8++ePlVausFav0f1R7a1PslerXsM+PP0+VVmVT7WXUnz7Tpaytn3bSz0esp6u6dT0k/UBf7IiWVbfAwBx2uIMmTPGwZmXZfQ3IL3rtkNfZjcD3kvHsrz6edeuPowqG2M8YtqcyJrGNr9MymxUb35kPV3TqfEs6xMbf7HEY7oBgDgyLsOmY4FB5fX47cs/oPKt2LbyUrls/P7KHunTvv2Ve4ttfondPioess0uaaq9mDaLvu2jtFlkf/voV8Q2OPs4QwXed3tUH33yfNuH9tp34xaT8vXqGJUvEMugX1s/UZ8u5zFNvrL9mP9kRfTp2McHZT0e6kapspVXxDQ4xwiXWlpzSez+Lop9d9x6+E9YNB6kI5J/2+rqKr4Nw8Tpuxgq9I3mYyLZvr7+Lsr4kHVRpWP3V2V31/zY/fVhX30PgKtIPjoX+4y9PdFWH+ex+7uA9v0VHbdy6eMnl/cvoL+0uxdyffur7axD4RD24c2PfWB8x8N3e/ae2NX0bV+s7XXaAMTqDA+tb/t4u76Ovu1DezaXrfO3qOLH3qJeH/O3YSq7Y7av4k+lbZd83zxTNhS54gFRVGUpz7d9aM9m/EpBCJhMKR7OG4CUxAnBWGr6xeLvqavX38riST4VkD1O9Tt5rGO7LMzt4sfY7JPjy+3sepTb6+tvVztUr/NtH9rD4q9ijcr3zYvTBsB357G3RwWgT17s/i6yfR9cXa1+GvYzdPzKSzd3Lf8vfRcb3/rJtsZmn+yvbK9rWm6vr79lkS272qCr79s+tIfFX8ebXBaCF+sNQIjOY76sWT0+Ug5An3Rq+p0qtkf3+E3220UnlDGcZD8Z02fCsp19F8PQ/Mn2uqZD2Odqg65+CPtinv9i91cXqy5lsfsbyj6rDUCoznmgYpzcuG0+jqnpV2l22aVn6x8KiiW+k3z9V5XxLLN/pSwzFPiOL9VdTJsTyl/KZts8qj2f/traoaoX2r5Yxgf3P3Z/uZ2+jrH7G9I+4wYgZOdVAGOHvy9kqekn6xVTfO+8ZfUrzL57ZBsvpB9+zYHVXYoyZbbv+Co76ljg276xtddRtvplsfvLfg04T+lKQh0YTyexxze0fdoNQOjOY1ocKp5kf/syJrcXu7997ZP16tteCP3YZQnlUwFX8mXjjwOJPvq2T2zbx7lv+8bWXl8NY/dX9i/G8eZ7cyL73Ccde3yHsE+5ARiic5+X+XzD3wes6rWp6Sfr9cCZ7WWM8WVfA3iDbGudLvPn1+eGkxDxNXTpVBzCPt+Teej28klW3fjZ6S92/WSnfM9/sbcn+++ajj2+Q9lHbgCG6tw1aLz+EPbh8ZFc7W7HnZOznX9lMWR8l09v/Dn7FcOztFflY/lTAenyrdyQ9un6tS0LbV/si8Oi2ydzsOj+yjzL/rum5fZS00/0t7UBgDj9vpqSmn6ug89Ufwj92IN//kJhR/HxLy3/kKJsmh3aPl3fNmWh7RMnDxt75Dqwr9/8IutZpWO80sbt9M0Lb7frEfw1+WtsACBOU5wukIW+rBnTYC/Z9+q6aKR6zVD8FWX5ZpUN7KeDr1OVhbZP1a9tfmj7fE/maM82sup67B5Atp/t9jdGXrp5uvWqMfober6vNwAQp//iL8KZwuSWlaW3DcCQ/D3h6o3fZbEinwrI8p8kxpGfD2Ef76vLcQj7Qk9GLn6n5q+LNjZ1U9MP/tLr23QDAHFocWwGElUnhcV/60pHrvpKXfaYx2TnKW2ovKH5Y5/zT9jW5e8oW1jeRXL+YPaVipvW8vKMbJOYHsw+sVP5PC835awL6fvmZd/mtuxLCpvY7q+s2Z2XfSrb5PzKPpZHb1jz8qtyfVN6DP76vJJaPdTNZ3uLpF+xSM6YwK/Kffsr95nO4p9lRTH5v2X/L6S/XC2yirJGtu942LaXZ/lvNgy5kGCXNBobA9v2qLaoPG17efk31GvYhZb3UvlVnrY91Ys0+Z3bK/PPkc2W5R3zmnzf+abDX2A2fb1tV15OlrK3V/md/W03Os0J1175OUWXUz8UZa3scPZtdRXb/CcLEJt9845HMa/BKQeGSs9bHMomU15Kl0l3Tq76CNOjOQHl7F1snv0bk05V+Tzje+LYoTeyxf5jkp0PFpPyuTxvcPvKfG+W5fK7/U/euXboMLdJPA5un9i5dM6eu7+H2X5OzGZXWT649NWNmo95TL7sLpXqng5pM1r+erU5iEk/UTd+Lto3WVp6gawvq/efThw7XOvLX6c6iu1VdeYRD5VtVb5v++S+Ft3fLvrV9wBAHBmXYdNdgqezcKj2Tqwd/rdsYvp+Zsvb2dfr3rixmT+STUof1tlWlQ1ln86O42uHn8xuonoRWyTeyXx43UPPb+y4/bYbPzsv+06sHTr50PPru8osP8o2UXeyayzXM30fT/kQg36iXXfecuh/TM6vP4Jp+VrGwR1Mzx9aPrXxvbzOvOaX48cO/36el9/G7DnGNH0b+38G0/RnYtOP68SPsn1Xbe78eEPfPPu3zI9n8fqmo9zevOKhstO3fXI/i+5vV/3y/ftXt0EcGZcs23vg6O4sK+9ql2hzHmSDcru2BlHYNXhEU9MstNfvng7oB/1UY4vKBy/D8bL3wJHqGR4XU3FQ5S1ly4++fe0X/l5Vbspf5PgWWPxN4Q9bvshwUcrB3+EmS0p/OQ/xQDxkJnTp2HmhbMdD3ShVtvKKlD6z7rvZUcvYrST2wQT7sDi4kA1ewMs8eXHp26ZuCjzX9wDYCCLWSUEc0V/f56npB3+xOLiMIfACXlx48V03Ff46bQBSEcc3VLy91PSDv5jMOfs2R/ACXmw4CVUnJf6cNwApiRMCsNT0g7+YzF3GEXgBLy68+K6bGn9OG4DUxAFcmIxcGEhtfMBfjI95jg+Xvm3qpsiz9QYgNXGqx0faQGNbJzX94C8WB9uxUdUDL+DFhRffdVPlz2oDkKI4PgFLUT88YfLgeleGwAsWQxd2UuPFRRubuqnpJ/pr3ACIlSsx+36Vbmzt2QCkqzM2f1OLL/zV0dsuA8/YnLSpUOf45kXdU7cS3/aNrT3tBmBszviezLshNXtV6vr5jgfam7Flcwb+sFjbcMLrjIEXbquP4xj8DX0lVbkBSF2cvoClrh8WazeCwAsWaxdiUufFRSuqbur68fmZ3ABAnN3sx8038RkuNXKIPPCCxYvAQpkFXsCLEg6iQOaFqOKUJbfHF0OnRoTKY26vtQEYszNCTKxP4S8mI2tYWEXwAl7Ai1qB0OND3bNdSWj7xraZaGwAIE6/ya1CMPRnNvjtBruBXtUCz/14hn7Qz360DTPeXOyR64LnNs/1BgDitMWRAXJJj20n6OJbVRe89OMF+kE/lzEHXsBLCF6mGwDA1Q8uOTBY/GVF9Gnw148/6Af99COsWZoaL9VD3XBlln4uSZEaDL79bQ6t9J6TgM2OTIA+7Zs/tIfFX09cszQ1XpreY36W9SiwM6J3RrJQtml8Rm+rFD5GwObJnpWqZmqLF/ztt7mT6cJ4kxXJsvoeAIjTFmfIHAz2foMd+kE/l/EKXhabF5kFrG+yIlvp6QYA4tDiDJWLyWixJyPEF/F1mUvASz9eKK1xZZZShV0BwOJPCzNULgZ7v8EO/aCfy1gFL4vNC8UCHupGqbKVV2BnpBYndAkmo8WejBBfxNdlDgEv/Xhx0dqmbgrxqO8BsBFErJOCOKK/vs9T0w/+9pvcoB/0c5mDUuPFRRubuqno12kDkIo4NqB0qZOafvAXi5fLOAEv4MWFF991U+LPeQOQkji+waraS00/+IvJ3GUcgRfw4sKL77qp8ee0AUhNHMCFyciFgdTGB/zF+Jjn+HDp26ZuijxbbwBSE6d6fKQNNLZ1UtMP/mJxsB0bVT3wAl5cePFdN1X+rDYAKYrjE7AU9cMTJrs/YRK8YDF0mX9S48VFG5u6qekn+pubBBIrV3WTeW7AjosfsZltfN6kT6M8zzbyMn+jmDfJZ09b5PlFmU34uesR7bGHV0A/a2zAC3ixhoVVjJ2XMi9fmpXZsotPWZZffWLt0EnqNcmubxfE0AqZujgUMNo8BmaZlT8j1slLMbV1TmS1Kyly0F7Gxn/3P+gH/VzoAS9x8dJr8EuBT319q97MKz8CSF0ciRUkoQAUgAJQYEEUSH1941fyyQ0AxNld9nl85IKMEbgBBaAAFFg4BbC+ze6xaW0AIM5MnIUjHw5BASgABRJWAOtbc31rbAAgTlOchMcJXIcCUAAKLJQCWN/a61u9AYA4bXEWin44AwWgABRIVAGsb/T6Nt0AQJy2OEvL6w8kOlbgNhSAAlBgYRQ4t1Q8iOeS0M8lybH4txd/Tv7eA0c22Xl9lYTn4wgFoAAUgAJjUCDfXDq9fgm3lN/9ztOux0VbLwvsjOid0RYY+addAUF9KAAFoAAUiEMB9uCgeg7H4t+OSf3uFuJQ4kxe2s5FDhSAAlAACoxBgSLPX1bZifWNjtZ0AwBxaHHuWLvxfVme/w5dilwoAAWgABSIVQH2xNDfLu5d/wDWN3WECoijFqcqOXHs0I+UWf4a9jzp6n4A/EEBKAAFoEDUCuSb1Zy9fHrjANY3faCMPwake/mi3RCh8/WaA6u7tmUrN7Bn/T+DbQZ2srra31HQtRWijNl1MQvmLse22Y8S5Xc5vmbg6uVDWIcPc+qU/ShTVub/4PSawSuXlU+Vbw5/+TlW+W6HFwxfNc+uyMpyu1PHeX6WPeP9XqfXDF65vIp1uc2t27z6JtF9bq8ZuHZePsL1x3XYO+vTeZafGdhSU3cb7FcLTjG7PrQ+yV590X3rp7H4myTrsYiltPhXMu7Odt/Hbpj8BS5pbHDtO3Dz89iP5N3J7bM83sN+JetRVN1Y4rv3wNGfZQP7tZSNyrwy//+YX49TlhMFQ/u778DR32Cbtp8gTNFklX+5dHrjf6sqxMYf129zx/IdzLxrNE5QRe9h8dovFvD2eN68/WUc/inj8KncHpsj25Dfdnzt0Mtt6s7LX/ZNp+omuW+xsVGos7or2/Vba2u6G6iF2sRpSH8vYv3NmxfZ5ZD+Vn119be+CVA2WJeO1Rluc4r2lQX7IU9Pf7Hr58nNupmx+dt1sHOHQ/vL++l6DG1fX/26+qV63Rj9jXXxrzTuG9/Y4+HTPucNgM/Oq2ChPfVzCCp9TH+yfqb6pnK5vdgGk8l+1/Kx+RtbPGT9XPWX68vtxeavbG/f9Dj97X4/VOz+pmaf0wYgNXHG5m+ak1F3r2OPL+VZ7O+82D0l7CPibn9jjEc3T7deBX/9vvmJbbMYe3wr+6w3AGNwJuWHGuWTovPEW01Hsce3z0RLvXaU/uaLu7hGH4+89PYRG8YbLtNTc5IuL9T4sNoAhOqcO4ydG1fC7kjFI8snnb+mSLUX0ztNO1Xsa8HfuN55sW8N5LFv3u3pMtcEf3HxF3s8Qtpn3ACE7LwaKlj8zROGWCO1eLA7r5dE//uex65fX//k14/BX/bVrfrddezzgayva3oM8XD1SVc/dn9Tt0+7AUhdnNgno772VQMX77zi+SqTbiLtUhb7+JV96stzaH9le13Toe3rq5+rP6b6sfsL+3aXyg0AxFnsy1Ty4O07eYTmRbbXNR3avr76ufpjqj82f/vqF9pfk96m8tD29dXPZL9reez+wr6t9Y3cAEAcLP4uAz40Ly62UHVD24fJl1LdPo89EKmM6Z4Tihf2ZMnON9lS7cXkr32k7GrG7i/sm61vrQ0AxJmJY4d7s1bs+jWtjf8eDNle1/TY4uHqn1x/lP7i2w1yGJVp3/FVdtSxwLd9aC/setTYAEDssGK7jinf8aD6j+mdCOVvnx9hotqLyV8qHn3y4G9c45c9m7PAPTbx3GMT+/iYh331BmAenbtMdrCv3+TmorVNXcSjXzzY9eR67NnobaoTezxM9ruWj83fvh8ThfbXVX+5fmj7YtdvrPZNJyEEr99kHrt+8mDtmx6Dv3jnFc87r768ya8fA3+izbEvDqKtXc5jjwfsU69vBcRRi2MzGGLXz8YHlzpj8xeTr0t0/T8R0q13c23w53e+MiuurxF7PGCfnpfoP6OK/Z1czPbph657aeyDSfYIi7+siD7tO7763txLfdvnuz3Ko5juOaH8pWy2zaPai91f2NeMbv05ZOyTJexrBm7oVOyDXdYjdl5ke13TY4uHq39y/TH6y36dYyL7YZuO3V/Yp39nbYpzLPpNNwCxT5awz4RT2PJYYHXxMvadPnv27cIuDi5xsqk7Rv5s/FLVid/fcinmK5+x6xeTfQUWV9UwpPNjCh5tod9c+LsYO30VFb7jy367oX6uv6pPl3zf9vluz8UXm7q+7fPdnuwD1g9ZEX3adzz6tlfE/k4J9umBClnaFy7ZNt/tye33Tfu2z3d7+NW8uDZjfXmTX++bF9/tyfZi8ZcV0ad9x8NHe/U9AHrT26U+OhdbRXv9JresLPCreSJQjuex8ye7E/vkK9vrmh5bPFz9k+uPzd/Y+YN9MmF0utMGIHZYU7SvLNhzxzz9xa6fJzfrZsbmb+yTWy1sx5OxxaOjm/XLxugvrszW4TOexBxf5w1AzM5UkUjdPiONhgqx62cw37l4bP5i8XcLse/4uvVuru3bPt/t0R7km3S+Ode3fWiv35Vjpw0AxO4ndmj9zMNPXyO0fX0XL7317qVj9Df2d17stxvwq3mWKI6RP0vXyGqx+5uifdYbgBTFGdNXXfIJ+9Zxj7/Y49vDNfKlo/QXv5pHxpLK9B1ftq/x9hFbZa9v+3y3R2naJ8+3fWjPz5tRqw0AxPYjNh9Afd8JU/HI8snCXpbjuvk6UvrF9M7al5+8nej9Lcs89s0219LHMfp4+HBSaCN2f1O2z7gBSFmciuEQi3VMi03s8WXfK8e3G4TJ1PU0/viyDw2yvH53Hft4c9Vfrj+GeMg290nH7m/q9mk3AKmLE/tk1Ne+amDjnRd+Nc92gvc9H8j99uXZt31ye7K9rmm5vdj8dfXHVD92f2Hf7lK5AYA48V/273MlQR68sU1GMn+yva5pub3Y/HX1x1R/bP7GFg9ZP5PepnK5vdj8NdnvWh67v7Bva30jNwAQB4u/y4APzYuLLVTd0Pb1ncwpm/vkjc3fkj3isM9mdgh/2ROOO99kO4R9ffTrwxr12tj9hX2z9a21AYA4M3EouE15sesn29938Qrtr2yvazq0fX31c/XHVH+U/uLbDaaw1uW+41s37OnEt31oL+x61NgAQOywYruOMd/xoPrv887Bt31Ue+wWMXy7gQockUfpF1N8CZN7ZcXuL3s2Z4F7bOK5xyZ2XuZhX70BmEfnLqMf9vXbnLhobVMX8egXD3Y9uR57Nnqb6sQeD5P9ruVj87fvlaLQ/rrqL9cPbV/s+o3VvukkhOD1m8xj108erH3TY/AX77zieefVlzf59WPgT7Q59sVBtLXLeezxgH3q9a2AOGpxbAZD7PrZ+OBSZ2z+YvJ1ia7/J9S59W6uDf78zldmxfU1Yo8H7NPzshz7OyXYZ/dOrsizv5qU+evF4Vp9Bimmq3P2wOAJz2M3Nn+an9sc5zGYlvL8DyZl9g029s38nfx1VT/mxZ/d+f577Pk358V4GH0s8w+LdeYRD7F/6rzIJr9ZZsVnqrJZPGY1KX/ZU4DeM6uhPpurv3n+WvY9gO9SW0f5m789pnswKP3uzr9ytCiLJ+j8ksvYgxv/qMqj2ovdX9jXjGa+f//qtior5skS9jWDZpPC4NTvfE0aQj/oZ2JELAcv4EXkwXQeCy/Td4hY/E3hapbHErymVbMU7MNkNKPBfAZewIuZklkN8LI4vBRY/Gdg25wB/sWBn4o34ov4Ulyo8sALeFGxQeXHxkv9IxyUsaa82JyR7YV9GJwyE7o0eAEvOj7kMvACXmQmdOkYeem8AYjRGVF82IfBKfJgOgcv4MXEiFgOXsCLyIPpPFZeOm0AYnWGBwH2YXByFmyO4AW82HDC64AX8MJZsDnGzIvzBiBmZ6pgwD4MTptByeuAF/DCWbA5ghfwYsMJrxM7L04bgNidgX0YnHzg2RzBC3ix4YTXAS/ghbNgcxwDL9YbgDE4g4cG2T00iIIX8cXkRnGhygMv4EXFBpUPXuLkxWoDgODFGTw+0PBVTq6E3RE8g2c7UrZqgRfwsqi8GDcAgB/wLyr8lV/YPLlEF/fYgBfwolNgbOuldgMwNmcwOHVotssQX2zu2lSoc8ALeFHT0S4BL/HzotwAIHjxBw8/bNGedFQ54Bk8q9ig8sELeKG4UOWNlRdyAzBWZ1TBMeXDXwx2EyNiOXgBLyIPpnPwAl5MjIjlQ/LS2gAM2bnotO057MNgsmWlqgdewAt4USuA8ZH2+GhsAABD2jCopwm6BLyAF5oMOhe8gBeaDDoXvITnpd4AQOzwYtOY07mIB+JBk0HnghfwQpNB54IX8FKRMd0AAAbAQE8TdC54AS80GXQueAEvNBl0LngZjpccYg8nNo17MxfxQDyaROhT4AW86AlploIX8CISUeDxuXh8rgiE7hyTByYPHR9yGXgBLzITujR4GZ6XggcED9HhStgdAevwsOoig3ggHjo+5DLwAl5kJnTpReVlugHA4q8LfbtsUWFoe7qVA38xWarYoPLBC3ihuFDlgZf58VJg8VdhSecD1vnBSkUE8UA8KC5UeeAFvKjYoPIXnZf6a4CU86a8RRdH9h/+YvKQmdClwQt40fEhl4EX8CIzoUv74KXzBsBH56JzaA/wizyYzsELeDExIpaDF/Ai8mA6T4WXThuAVMThkMBfTB6cBZsjeAEvNpzwOuAFvHAWbI4+eXHeAPjsvHIW7QF+G+h5HfACXjgLNkfwAl5sOOF1UuPFaQOQmjjwF5MHnxhsjuAFvNhwwuuAF/DCWbA5huDFegMQonM8hAgPIbIBv6oD/jBZ2rICXrIM3+5yoSXd+cVqA4DJF5Ovy3ACL+AFvKgVwPjA+FDT0S4JyYtxAxCy88pV7FTbAdflIB6YPHR8yGXgBbzITOjS4CUtXrQbAMCQFgzYjOmmxnYZxgfGR5sKdQ54AS9qOtolQ/Ci3AAM0fnaGj4Db4edzkE8MHnQZNC54AW80GTQueAlTV7IDQBgSBMGemow54IX8GKmZFYDvICXGQ3mM/ASjpfWBgBihxPbjHq7BuKBeLSpUOeAF/CipqNdAl7S5qWxAQAMacPQnh70OeAFvOgJaZaCF/DSJEKfAi/heak3ABA7vNh63JuliAfi0SRCnwIv4EVPSLMUvICXiojpBgAwAIbm9KBPgRfwoiekWQpewEuTCH0KvAzHSw6xhxNbj/1WKeKBeNhwwuuAF/DCWbA5ghfwInJS4HG8+CqiCITuHJMHJg8dH3IZeAEvMhO6NHgZnpeCBwQPgeFK2B0B6/Cw6iKDeCAeOj7kMvACXmQmdOlF5WW6AcDirwt9u2xRYWh7upUDfzFZqtig8sELeKG4UOWBl/nxUmDxV2FJ5wPW+cFKRQTxQDwoLlR54AW8qNig8hedl/prgJTzprxFF0f2H/5i8pCZ0KXBC3jR8SGXgRfwIjOhS/vgpfMGwEfnonNoD/CLPJjOwQt4MTEiloMX8CLyYDpPhZdOG4BUxOGQwF9MHpwFmyN4AS82nPA64AW8cBZsjj55cd4A+Oy8chbtAX4b6Hkd8AJeOAs2R/ACXmw44XVS48VpA5CaOPAXkwefGGyO4AW82HDC64AX8MJZsDmG4MV6AxCiczyECA8hsgG/qgP+MFnasgJesgzf7nKhJd35xWoDgMkXk6/LcAIv4AW8qBXA+MD4UNPRLgnJi3EDELLzylXsVNsB1+UgHpg8dHzIZeAFvMhM6NLgJS1etBsAwJAWDNiM6abGdhnGB8ZHmwp1DngBL2o62iVD8KLcAAzR+doaPgNvh53OQTwwedBk0LngBbzQZNC54CVNXsgNAGBIEwZ6ajDnghfwYqZkVgO8gJcZDeYz8BKOl9YGAGKHE9uMersG4oF4tKlQ54AX8KKmo10CXtLmpbEBAAxpw9CeHvQ54AW86AlploIX8NIkQp8CL+F5qTcAEDu82Hrcm6WIB+LRJEKfAi/gRU9IsxS8gJeKiOkGADAAhub0oE+BF/CiJ6RZCl7AS5MIfQq8DMdLDrGHE1uP/VYp4oF42HDC64AX8MJZsDmCF/AiclLgcbz4KqIIhO4ckwcmDx0fchl4AS8yE7o0eBmel4IHBA+B4UrYHQHr8LDqIoN4IB46PuQy8AJeZCZ06UXlZboBwOKvC327bFFhaHu6lQN/MVmq2KDywQt4obhQ5YGX+fFSYPFXYUnnA9b5wUpFBPFAPCguVHngBbyo2KDyF52X+muAlPOmvEUXR/Yf/mLykJnQpcELeNHxIZeBF/AiM6FL++Cl8wbAR+eic2gP8Is8mM7BC3gxMSKWgxfwIvJgOk+Fl04bgFTE4ZDAX0wenAWbI3gBLzac8DrgBbxwFmyOPnlx3gD47LxyFu0BfhvoeR3wAl44CzZH8AJebDjhdVLjxWkDkJo48BeTB58YbI7gBbzYcMLrgBfwwlmwOYbgxXoDEKJzPIQIDyGyAb+qA/4wWdqyAl6yDN/ucqEl3fnFagOAyReTr8twAi/gBbyoFcD4wPhQ09EuCcmLcQMQsvPKVexU2wHX5SAemDx0fMhl4AW8yEzo0uAlLV60GwDAkBYM2IzppsZ2GcYHxkebCnUOeAEvajraJUPwotwADNH52ho+A2+Hnc5BPDB50GTQueAFvNBk0LngJU1eyA0AYEgTBnpqMOeCF/BipmRWA7yAlxkN5jPwEo6X1gYAYocT24x6uwbigXi0qVDngBfwoqajXQJe0ualsQEADGnD0J4e9DngBbzoCWmWghfw0iRCnwIv4XmpNwAQO7zYetybpYgH4tEkQp8CL+BFT0izFLyAl4qI6QYAMACG5vSgT4EX8KInpFkKXsBLkwh9CrwMx0sOsYcTW4/9VinigXjYcMLrgBfwwlmwOYIX8CJyUuBxvPgqogiE7hyTByYPHR9yGXgBLzITujR4GZ6XggcED4HhStgdAevwsOoig3ggHjo+5DLwAl5kJnTpReVlugHA4q8LfbtsUWFoe7qVA38xWarYoPLBC3ihuFDlgZf58VJg8VdhSecD1vnBSkUE8UA8KC5UeeAFvKjYoPIXnZf6a4CU86a8RRdH9h/+YvKQmdClwQt40fEhl4EX8CIzoUv74KXzBsBH56JzaA/wizyYzsELeDExIpaDF/Ai8mA6T4WXThuAVMThkMBfTB6cBZsjeAEvNpzwOuAFvHAWbI4+eXHeAPjsvHIW7QF+G+h5HfACXjgLNkfwAl5sOOF1UuPFaQOQmjjwF5MHnxhsjuAFvNhwwuuAF/DCWbA5huDFegMQonM8hAgPIbIBv6oD/jBZ2rICXrIM3+5yoSXd+cVqA4DJF5Ovy3ACL+AFvKgVwPjA+FDT0S4JyYtxAxCy88pV7FTbAdflIB6YPHR8yGXgBbzITOjS4CUtXrQbAMCQFgzYjOmmxnYZxgfGR5sKdQ54AS9qOtolQ/Ci3AAM0fnaGj4Db4edzkE8MHnQZNC54AW80GTQueAlTV7IDQBgSBMGemow54IX8GKmZFYDvICXGQ3mM/ASjpfWBgBihxPbjHq7BuKBeLSpUOeAF/CipqNdAl7S5qWxAQAMacPQnh70OeAFvOgJaZaCF/DSJEKfAi/heak3ABA7vNh63JuliAfi0SRCnwIv4EVPSLMUvICXiojpBgAwAIbm9KBPgRfwoiekWQpewEuTCH0KvAzHSw6xhxNbj/1WKeKBeNhwwuuAF/DCWbA5ghfwInJS4HG8+CqiCITuHJMHJg8dH3IZeAEvMhO6NHgZnpeCBwQPgeFK2B0B6/Cw6iKDeCAeOj7kMvACXmQmdOlF5WW6AcDirwt9u2xRYWh7upUDfzFZqtig8sELeKG4UOWBl/nxUmDxV2FJ5wPW+cFKRQTxQDwoLlR54AW8qNig8hedl/prgJTzprxFF0f2H/5i8pCZ0KXBC3jR8SGXgRfwIjOhS/vgpfMGwEfnonNoD/CLPJjOwQt4MTEiloMX8CLyYDpPhZdOG4BUxOGQwF9MHpwFmyN4AS82nPA64AW8cBZsjj55cd4A+Oy8chbtAX4b6Hkd8AJeOAs2R/ACXmw44XVS48VpA5CaOPAXkwefGGyO4AW82HDC64AX8MJZsDmG4MV6AxCiczyECA8hsgG/qgP+MFnasgJesgzf7nKhJd35xWoDgMkXk6/LcAIv4AW8qBXA+MD4UNPRLgnJi3EDELLzylXsVNsB1+UgHpg8dHzIZeAFvMhM6NLgJS1etBsAwJAWDNiM6abGdhnGB8ZHmwp1DngBL2o62iVD8KLcAAzR+doaPgNvh53OQTwwedBk0LngBbzQZNC54CVNXv5/j+C9LGUXmpYAAAAASUVORK5CYII=;" parent="1" vertex="1">
          <mxGeometry x="1195" y="289" width="116" height="116" as="geometry" />
        </mxCell>
        <mxCell id="xNWUwTir-geYUf0pCN78-49" value="&lt;h1 style=&quot;margin: 20px 0px 10px; padding: 0px; border: 0px; font-style: normal; font-variant-caps: normal; font-weight: 500; font-stretch: inherit; font-size: 36px; line-height: 1.1; font-family: Raleway, Arial, Tahoma, sans-serif; font-kerning: inherit; font-variant-alternates: inherit; font-variant-ligatures: inherit; font-variant-numeric: inherit; font-variant-east-asian: inherit; font-feature-settings: inherit; font-optical-sizing: inherit; font-variation-settings: inherit; vertical-align: baseline; color: rgb(245, 130, 32); letter-spacing: normal; text-indent: 0px; text-transform: none; word-spacing: 0px; -webkit-text-stroke-width: 0px; text-decoration: none; box-sizing: border-box !important;&quot; class=&quot;post-heading-3&quot;&gt;&lt;img style=&quot;box-sizing: border-box !important; height: auto; max-width: 100%; margin: 15px 15px 0px 0px; padding: 0px; border: 0px; font-style: inherit; font-variant-caps: inherit; font-weight: inherit; font-stretch: inherit; font-size: inherit; line-height: inherit; font-family: inherit; font-size-adjust: inherit; font-kerning: inherit; font-variant-alternates: inherit; font-variant-ligatures: inherit; font-variant-numeric: inherit; font-variant-east-asian: inherit; font-variant-position: inherit; font-feature-settings: inherit; font-optical-sizing: inherit; font-variation-settings: inherit; vertical-align: middle; float: left;&quot; sizes=&quot;(max-width: 286px) 100vw, 286px&quot; srcset=&quot;https://www.sovereignconsult.com/wp-content/uploads/2020/03/RestApi.png 300w, https://www.sovereignconsult.com/wp-content/uploads/2020/03/RestApi-150x150.png 150w, https://www.sovereignconsult.com/wp-content/uploads/2020/03/RestApi-146x146.png 146w, https://www.sovereignconsult.com/wp-content/uploads/2020/03/RestApi-50x50.png 50w, https://www.sovereignconsult.com/wp-content/uploads/2020/03/RestApi-75x75.png 75w, https://www.sovereignconsult.com/wp-content/uploads/2020/03/RestApi-85x85.png 85w, https://www.sovereignconsult.com/wp-content/uploads/2020/03/RestApi-80x80.png 80w&quot; height=&quot;286&quot; width=&quot;286&quot; alt=&quot;Understanding Rest API and its Uses in Web Application Development&quot; src=&quot;https://www.sovereignconsult.com/wp-content/uploads/2020/03/RestApi.png&quot; class=&quot;wp-image-2141 alignleft&quot; decoding=&quot;async&quot;&gt;&lt;/h1&gt;&lt;br class=&quot;Apple-interchange-newline&quot;&gt;" style="text;whiteSpace=wrap;html=1;align=center;verticalAlign=bottom;aspect=fixed;" parent="1" vertex="1">
          <mxGeometry x="393.5" y="293" width="80" height="80" as="geometry" />
        </mxCell>
        <mxCell id="xNWUwTir-geYUf0pCN78-50" value="TypeOrmRepository" style="text;html=1;align=center;verticalAlign=middle;whiteSpace=wrap;rounded=0;fontColor=#F7FAFB;fontStyle=2;fontSize=20;" parent="1" vertex="1">
          <mxGeometry x="1143" y="243" width="220" height="50" as="geometry" />
        </mxCell>
        <mxCell id="xNWUwTir-geYUf0pCN78-51" value="InMemoryRepository" style="text;html=1;align=center;verticalAlign=middle;whiteSpace=wrap;rounded=0;fontColor=#F7FAFB;fontStyle=2;fontSize=20;" parent="1" vertex="1">
          <mxGeometry x="1143" y="379" width="220" height="50" as="geometry" />
        </mxCell>
        <mxCell id="xNWUwTir-geYUf0pCN78-52" value="RestController" style="text;html=1;align=center;verticalAlign=middle;whiteSpace=wrap;rounded=0;fontColor=#F7FAFB;fontStyle=2;fontSize=20;" parent="1" vertex="1">
          <mxGeometry x="363.75" y="373" width="139.5" height="50" as="geometry" />
        </mxCell>
        <mxCell id="xNWUwTir-geYUf0pCN78-59" value="" style="endArrow=classic;startArrow=classic;html=1;rounded=0;dashed=1;strokeColor=#FF66B3;exitX=1.023;exitY=0.152;exitDx=0;exitDy=0;exitPerimeter=0;" parent="1" source="xNWUwTir-geYUf0pCN78-21" target="xNWUwTir-geYUf0pCN78-27" edge="1">
          <mxGeometry width="50" height="50" relative="1" as="geometry">
            <mxPoint x="803" y="539" as="sourcePoint" />
            <mxPoint x="853" y="489" as="targetPoint" />
          </mxGeometry>
        </mxCell>
        <mxCell id="xNWUwTir-geYUf0pCN78-60" value="&lt;i style=&quot;font-size: 15px;&quot;&gt;&lt;font style=&quot;font-size: 15px;&quot;&gt;&amp;lt;defines&amp;gt;&lt;/font&gt;&lt;/i&gt;" style="edgeLabel;html=1;align=center;verticalAlign=middle;resizable=0;points=[];labelBackgroundColor=#2D2F36;fontColor=#FF66B3;fontSize=15;" parent="xNWUwTir-geYUf0pCN78-59" vertex="1" connectable="0">
          <mxGeometry x="-0.0434" y="1" relative="1" as="geometry">
            <mxPoint as="offset" />
          </mxGeometry>
        </mxCell>
        <mxCell id="xNWUwTir-geYUf0pCN78-86" value="" style="group;fillColor=#e1d5e7;strokeColor=#C698DB;" parent="1" vertex="1" connectable="0">
          <mxGeometry x="323.5" y="830" width="1039.5" height="200" as="geometry" />
        </mxCell>
        <mxCell id="xNWUwTir-geYUf0pCN78-81" value="" style="rounded=0;whiteSpace=wrap;html=1;fillColor=#42454F;strokeColor=none;fontColor=#42454f;" parent="xNWUwTir-geYUf0pCN78-86" vertex="1">
          <mxGeometry width="1039.5" height="200" as="geometry" />
        </mxCell>
        <mxCell id="xNWUwTir-geYUf0pCN78-62" value="&lt;font color=&quot;#6c8ebf&quot;&gt;MAIN&lt;/font&gt;" style="rounded=0;whiteSpace=wrap;html=1;fillColor=#2D2F36;strokeColor=#6c8ebf;fontStyle=3;fontSize=16;dashed=1;" parent="xNWUwTir-geYUf0pCN78-86" vertex="1">
          <mxGeometry x="470.7754807692308" y="14" width="119.9423076923077" height="29" as="geometry" />
        </mxCell>
        <mxCell id="xNWUwTir-geYUf0pCN78-64" value="&lt;font color=&quot;#82b366&quot;&gt;DOMAIN&lt;/font&gt;" style="rounded=0;whiteSpace=wrap;html=1;fillColor=#2D2F36;strokeColor=#82b366;fontStyle=3;fontSize=16;dashed=1;" parent="xNWUwTir-geYUf0pCN78-86" vertex="1">
          <mxGeometry x="350.83701923076916" y="143" width="119.9423076923077" height="29" as="geometry" />
        </mxCell>
        <mxCell id="nqy0GqBybJE0_EcETg_L-3" style="edgeStyle=orthogonalEdgeStyle;rounded=0;orthogonalLoop=1;jettySize=auto;html=1;strokeColor=#C698DB;dashed=1;labelBackgroundColor=none;fontColor=#9673A6;" edge="1" parent="xNWUwTir-geYUf0pCN78-86" source="xNWUwTir-geYUf0pCN78-65" target="xNWUwTir-geYUf0pCN78-64">
          <mxGeometry relative="1" as="geometry" />
        </mxCell>
        <mxCell id="nqy0GqBybJE0_EcETg_L-4" value="&lt;font color=&quot;#c698db&quot;&gt;IoC&lt;/font&gt;" style="edgeLabel;html=1;align=center;verticalAlign=middle;resizable=0;points=[];labelBackgroundColor=#42454f;fontColor=#B85450;fontStyle=2" vertex="1" connectable="0" parent="nqy0GqBybJE0_EcETg_L-3">
          <mxGeometry x="0.0574" relative="1" as="geometry">
            <mxPoint x="-3" y="7" as="offset" />
          </mxGeometry>
        </mxCell>
        <mxCell id="xNWUwTir-geYUf0pCN78-65" value="&lt;font color=&quot;#c698db&quot;&gt;INFRA&lt;/font&gt;" style="rounded=0;whiteSpace=wrap;html=1;fillColor=#42454f;strokeColor=#C698DB;fontStyle=3;fontSize=16;dashed=1;" parent="xNWUwTir-geYUf0pCN78-86" vertex="1">
          <mxGeometry x="590.7154807692309" y="143" width="119.9423076923077" height="29" as="geometry" />
        </mxCell>
        <mxCell id="nqy0GqBybJE0_EcETg_L-5" style="edgeStyle=orthogonalEdgeStyle;rounded=0;orthogonalLoop=1;jettySize=auto;html=1;dashed=1;strokeColor=#D6B656;" edge="1" parent="xNWUwTir-geYUf0pCN78-86" source="xNWUwTir-geYUf0pCN78-66" target="xNWUwTir-geYUf0pCN78-64">
          <mxGeometry relative="1" as="geometry">
            <Array as="points">
              <mxPoint x="531" y="119" />
              <mxPoint x="411" y="119" />
            </Array>
          </mxGeometry>
        </mxCell>
        <mxCell id="nqy0GqBybJE0_EcETg_L-6" style="edgeStyle=orthogonalEdgeStyle;rounded=0;orthogonalLoop=1;jettySize=auto;html=1;entryX=0.5;entryY=0;entryDx=0;entryDy=0;dashed=1;strokeColor=#D6B656;" edge="1" parent="xNWUwTir-geYUf0pCN78-86" source="xNWUwTir-geYUf0pCN78-66" target="xNWUwTir-geYUf0pCN78-65">
          <mxGeometry relative="1" as="geometry">
            <Array as="points">
              <mxPoint x="531" y="119" />
              <mxPoint x="651" y="119" />
            </Array>
          </mxGeometry>
        </mxCell>
        <mxCell id="xNWUwTir-geYUf0pCN78-66" value="&lt;font color=&quot;#d6b656&quot;&gt;APPLICATION&lt;/font&gt;" style="rounded=0;whiteSpace=wrap;html=1;fillColor=#2D2F36;strokeColor=#d6b656;fontStyle=3;fontSize=16;dashed=1;" parent="xNWUwTir-geYUf0pCN78-86" vertex="1">
          <mxGeometry x="470.77548076923074" y="69" width="119.9423076923077" height="29" as="geometry" />
        </mxCell>
        <mxCell id="xNWUwTir-geYUf0pCN78-68" style="rounded=0;orthogonalLoop=1;jettySize=auto;html=1;entryX=0.5;entryY=0;entryDx=0;entryDy=0;dashed=1;strokeColor=#D6B656;" parent="xNWUwTir-geYUf0pCN78-86" source="xNWUwTir-geYUf0pCN78-62" target="xNWUwTir-geYUf0pCN78-66" edge="1">
          <mxGeometry relative="1" as="geometry" />
        </mxCell>
        <mxCell id="xNWUwTir-geYUf0pCN78-76" value="bootstrap&lt;br style=&quot;font-size: 12px;&quot;&gt;server" style="text;html=1;align=left;verticalAlign=middle;resizable=0;points=[];autosize=1;strokeColor=none;fillColor=none;fontStyle=2;fontSize=12;fontColor=#6C8EBF;" parent="xNWUwTir-geYUf0pCN78-86" vertex="1">
          <mxGeometry x="598.2141826923076" y="5" width="68" height="41" as="geometry" />
        </mxCell>
        <mxCell id="xNWUwTir-geYUf0pCN78-77" value="models&lt;br style=&quot;font-size: 12px;&quot;&gt;service ports&lt;br style=&quot;font-size: 12px;&quot;&gt;repository port" style="text;html=1;align=right;verticalAlign=middle;resizable=0;points=[];autosize=1;strokeColor=none;fillColor=none;fontStyle=2;fontSize=12;fontColor=#82B366;" parent="xNWUwTir-geYUf0pCN78-86" vertex="1">
          <mxGeometry x="246.49668269230767" y="130" width="95" height="55" as="geometry" />
        </mxCell>
        <mxCell id="xNWUwTir-geYUf0pCN78-78" value="entities&lt;br style=&quot;font-size: 12px;&quot;&gt;repository adapters" style="text;html=1;align=left;verticalAlign=middle;resizable=0;points=[];autosize=1;strokeColor=none;fillColor=none;fontStyle=2;fontSize=12;fontColor=#C698DB;" parent="xNWUwTir-geYUf0pCN78-86" vertex="1">
          <mxGeometry x="715.4977403846153" y="135" width="121" height="41" as="geometry" />
        </mxCell>
        <mxCell id="xNWUwTir-geYUf0pCN78-80" value="controller adapters&lt;br style=&quot;font-size: 12px;&quot;&gt;web handlers" style="text;html=1;align=right;verticalAlign=middle;resizable=0;points=[];autosize=1;strokeColor=none;fillColor=none;fontStyle=2;fontSize=12;fontColor=#D6B656;" parent="xNWUwTir-geYUf0pCN78-86" vertex="1">
          <mxGeometry x="345.3348557692308" y="63" width="117" height="41" as="geometry" />
        </mxCell>
        <mxCell id="xNWUwTir-geYUf0pCN78-83" value="MODULES" style="text;html=1;align=center;verticalAlign=middle;resizable=0;points=[];autosize=1;strokeColor=none;fillColor=none;fontStyle=1;fontSize=55;fontColor=#2D2F36;" parent="xNWUwTir-geYUf0pCN78-86" vertex="1">
          <mxGeometry x="4.997596153846154" y="3" width="293" height="78" as="geometry" />
        </mxCell>
        <mxCell id="nqy0GqBybJE0_EcETg_L-7" value="&lt;font color=&quot;#6c8ebf&quot;&gt;MAIN&lt;/font&gt;" style="rounded=0;whiteSpace=wrap;html=1;fillColor=#6C8EBF;strokeColor=none;fontStyle=3;fontSize=16;dashed=1;" vertex="1" parent="xNWUwTir-geYUf0pCN78-86">
          <mxGeometry x="891.4954807692309" y="17" width="119.9423076923077" height="29" as="geometry" />
        </mxCell>
        <mxCell id="nqy0GqBybJE0_EcETg_L-8" value="&lt;font color=&quot;#d6b656&quot;&gt;APPLICATION&lt;/font&gt;" style="rounded=0;whiteSpace=wrap;html=1;fillColor=#D6B656;strokeColor=none;fontStyle=3;fontSize=16;dashed=1;" vertex="1" parent="xNWUwTir-geYUf0pCN78-86">
          <mxGeometry x="891.5" y="55" width="119.94" height="37" as="geometry" />
        </mxCell>
        <mxCell id="nqy0GqBybJE0_EcETg_L-27" value="&lt;font color=&quot;#82b366&quot;&gt;DOMAIN&lt;/font&gt;" style="rounded=0;whiteSpace=wrap;html=1;fillColor=#82B366;strokeColor=none;fontStyle=3;fontSize=16;dashed=1;" vertex="1" parent="xNWUwTir-geYUf0pCN78-86">
          <mxGeometry x="891.5" y="97" width="119.94" height="40" as="geometry" />
        </mxCell>
        <mxCell id="nqy0GqBybJE0_EcETg_L-28" value="&lt;font color=&quot;#c698db&quot;&gt;INFRA&lt;/font&gt;" style="rounded=0;whiteSpace=wrap;html=1;fillColor=#C698DB;strokeColor=none;fontStyle=3;fontSize=16;dashed=1;" vertex="1" parent="xNWUwTir-geYUf0pCN78-86">
          <mxGeometry x="891.5" y="140" width="119.94" height="45" as="geometry" />
        </mxCell>
        <mxCell id="nqy0GqBybJE0_EcETg_L-30" value="&lt;font color=&quot;#777c8f&quot; style=&quot;font-size: 25px;&quot;&gt;REQUEST&lt;/font&gt;" style="html=1;shadow=0;dashed=0;align=center;verticalAlign=middle;shape=mxgraph.arrows2.arrow;dy=0.43;dx=45.71;direction=south;notch=0;horizontal=0;fontStyle=1;labelBackgroundColor=#42454f;fillColor=#42454F;strokeColor=none;fontColor=#42454f;" vertex="1" parent="xNWUwTir-geYUf0pCN78-86">
          <mxGeometry x="875.5" y="14" width="70" height="174" as="geometry" />
        </mxCell>
      </root>
    </mxGraphModel>
  </diagram>
</mxfile>
